<svg xmlns="http://www.w3.org/2000/svg" xmlns:xlink="http://www.w3.org/1999/xlink" viewBox="0 0 500 500"><defs><clipPath id="freepik--clip-path--inject-2"><path d="M204.68,327.42s-3.05,13.37-4.22,17.36-5.86,12-6.57,25.32-4,45.5-4,45.5-8,7.27-10.32,9.61-.71,3.29.94,4.46,9.84,5.63,13.6,5.39,6.09-.94,6.33-4.69.23-12.19,1.17-15,13.84-42.21,16.65-53.93,2.81-18.06,2.81-18.06l4.93-12.9Z" style="fill:#fff;stroke:#263238;stroke-miterlimit:10"></path></clipPath><clipPath id="freepik--clip-path-2--inject-2"><path d="M219,358.23c-8.07-5.24-17.46-4.5-22.23-3.63a59.76,59.76,0,0,0-2.89,15.5c-.7,13.37-4,45.5-4,45.5s-8,7.27-10.32,9.61-.71,3.29.94,4.46,9.84,5.63,13.6,5.39,6.09-.94,6.33-4.69.23-12.19,1.17-15,13.84-42.21,16.65-53.93C218.55,360.31,218.79,359.25,219,358.23Z" style="fill:#fff;stroke:#263238;stroke-miterlimit:10"></path></clipPath><clipPath id="freepik--clip-path-3--inject-2"><path d="M282.3,327.42s3.05,13.37,4.22,17.36,5.87,12,6.57,25.32,4,45.5,4,45.5,8,7.27,10.32,9.61.7,3.29-.94,4.46-9.85,5.63-13.6,5.39-6.1-.94-6.34-4.69-.23-12.19-1.17-15-13.83-42.21-16.65-53.93-2.81-18.06-2.81-18.06L261,330.47Z" style="fill:#fff;stroke:#263238;stroke-miterlimit:10"></path></clipPath><clipPath id="freepik--clip-path-4--inject-2"><path d="M268,358.23c8.06-5.24,17.45-4.5,22.22-3.63a58.93,58.93,0,0,1,2.89,15.5c.7,13.37,4,45.5,4,45.5s8,7.27,10.32,9.61.7,3.29-.94,4.46-9.85,5.63-13.6,5.39-6.1-.94-6.34-4.69-.23-12.19-1.17-15-13.83-42.21-16.65-53.93C268.43,360.31,268.2,359.25,268,358.23Z" style="fill:#fff;stroke:#263238;stroke-miterlimit:10"></path></clipPath><clipPath id="freepik--clip-path-5--inject-2"><path d="M273.84,155.3s6.33-10.54,9.14-14.05,4-5.15,4-5.15-34.43-.24-35.84-.94-1.87-2.34-4-4.45-3.51-2.81-3.28-3.75,3.75,0,3.75,0a21,21,0,0,0-6.09-3.51c-3.05-.94-1.64-2.81,2.11-3s8-.7,11.47,1.41,7,8,7,8a191.26,191.26,0,0,1,23.66-7.49c11.95-2.81,23.66-2.58,24.36-1.64s-10.54,34.66-27.87,51.3Z" style="fill:#fff;stroke:#263238;stroke-miterlimit:10"></path></clipPath><clipPath id="freepik--clip-path-6--inject-2"><path d="M204.52,155.3s-6.33-10.54-9.14-14.05-4-5.15-4-5.15,34.44-.24,35.84-.94,1.87-2.34,4-4.45,3.52-2.81,3.28-3.75-3.75,0-3.75,0a21,21,0,0,1,6.09-3.51c3-.94,1.64-2.81-2.1-3s-8-.7-11.48,1.41-7,8-7,8a191.26,191.26,0,0,0-23.66-7.49c-11.94-2.81-23.66-2.58-24.36-1.64s10.54,34.66,27.88,51.3Z" style="fill:#fff;stroke:#263238;stroke-linecap:round;stroke-linejoin:round"></path></clipPath><clipPath id="freepik--clip-path-7--inject-2"><path d="M255.58,171.47l-15.69-.94c-11.71-.7-15.46.23-15.46.23L203.35,153.2l-12.42,18.74,17.57,21.31s3.05,17.1,5.39,26.71,3.28,29.28,2.11,34.19-.24,7.27,1.64,8.2,15.46,3.75,32.09,2.81,22.25-2.57,24.12-5.85.24-8.43-.46-12.18.23-16.63.7-27.17,1.4-23.66,1.4-23.66l15-24.13s-1.41-8.2-5.39-14.29a25.8,25.8,0,0,0-8.43-8.43l-10.08,13.82Z" style="fill:#7E57C2;stroke:#263238;stroke-miterlimit:10"></path></clipPath></defs><g id="freepik--background-simple--inject-2"><path d="M415.25,322.72a165.65,165.65,0,0,0,.73-36.44C407,180.12,318.19,67.76,218.14,93.81c-34.58,9-60.19,33.58-75.45,68.88-11.2,25.9-19.13,56.2-37.34,76.94-29.86,34-65.91,87.25-20.59,133.74s100.92,16.29,148.29,13.9c39.82-2,80.06,12.82,119.75,7.48C390.51,389.68,410.11,360.17,415.25,322.72Z" style="fill:#7E57C2"></path><path d="M415.25,322.72a165.65,165.65,0,0,0,.73-36.44C407,180.12,318.19,67.76,218.14,93.81c-34.58,9-60.19,33.58-75.45,68.88-11.2,25.9-19.13,56.2-37.34,76.94-29.86,34-65.91,87.25-20.59,133.74s100.92,16.29,148.29,13.9c39.82-2,80.06,12.82,119.75,7.48C390.51,389.68,410.11,360.17,415.25,322.72Z" style="fill:#fff;opacity:0.7000000000000001"></path></g><g id="freepik--Audience--inject-2"><path d="M376.87,328.79a3.7,3.7,0,1,1-3.69-3.7A3.7,3.7,0,0,1,376.87,328.79Z" style="fill:#d1d1d1"></path><path d="M382,318.83a3.7,3.7,0,1,1-3.7-3.7A3.7,3.7,0,0,1,382,318.83Z" style="fill:#d1d1d1"></path><path d="M389.68,328.79a3.7,3.7,0,1,1-3.7-3.7A3.7,3.7,0,0,1,389.68,328.79Z" style="fill:#b0b0b0"></path><path d="M371.47,321.11a3.7,3.7,0,1,1-3.7-3.7A3.7,3.7,0,0,1,371.47,321.11Z" style="fill:#b0b0b0"></path><path d="M398.78,324.81a3.7,3.7,0,1,1-3.7-3.7A3.69,3.69,0,0,1,398.78,324.81Z" style="fill:#d1d1d1"></path><path d="M403.9,314.85a3.7,3.7,0,1,1-3.69-3.7A3.7,3.7,0,0,1,403.9,314.85Z" style="fill:#d1d1d1"></path><circle cx="407.89" cy="324.81" r="3.7" style="fill:#b0b0b0"></circle><path d="M393.38,317.12a3.7,3.7,0,1,1-3.7-3.7A3.7,3.7,0,0,1,393.38,317.12Z" style="fill:#b0b0b0"></path><path d="M161.77,312a3.7,3.7,0,1,1-3.7-3.7A3.7,3.7,0,0,1,161.77,312Z" style="fill:#d1d1d1"></path><path d="M166.89,302a3.7,3.7,0,1,1-3.7-3.7A3.69,3.69,0,0,1,166.89,302Z" style="fill:#d1d1d1"></path><path d="M174.57,312a3.7,3.7,0,1,1-3.69-3.7A3.7,3.7,0,0,1,174.57,312Z" style="fill:#b0b0b0"></path><path d="M156.37,304.32a3.7,3.7,0,1,1-3.7-3.7A3.7,3.7,0,0,1,156.37,304.32Z" style="fill:#b0b0b0"></path><path d="M324.81,314.56a3.7,3.7,0,1,1-3.7-3.7A3.7,3.7,0,0,1,324.81,314.56Z" style="fill:#d1d1d1"></path><path d="M329.93,304.6a3.7,3.7,0,1,1-3.7-3.69A3.7,3.7,0,0,1,329.93,304.6Z" style="fill:#d1d1d1"></path><path d="M337.61,314.56a3.7,3.7,0,1,1-3.7-3.7A3.7,3.7,0,0,1,337.61,314.56Z" style="fill:#b0b0b0"></path><path d="M319.4,306.88a3.7,3.7,0,1,1-3.7-3.7A3.7,3.7,0,0,1,319.4,306.88Z" style="fill:#b0b0b0"></path><path d="M360.09,339.32a3.7,3.7,0,1,1-3.7-3.7A3.7,3.7,0,0,1,360.09,339.32Z" style="fill:#d1d1d1"></path><path d="M365.21,329.36a3.7,3.7,0,1,1-3.7-3.7A3.7,3.7,0,0,1,365.21,329.36Z" style="fill:#d1d1d1"></path><path d="M372.89,339.32a3.7,3.7,0,1,1-3.7-3.7A3.7,3.7,0,0,1,372.89,339.32Z" style="fill:#b0b0b0"></path><path d="M354.68,331.63a3.7,3.7,0,1,1-3.7-3.69A3.7,3.7,0,0,1,354.68,331.63Z" style="fill:#b0b0b0"></path><circle cx="382" cy="348.71" r="3.7" style="fill:#d1d1d1"></circle><path d="M390.82,338.75a3.7,3.7,0,1,1-3.7-3.7A3.7,3.7,0,0,1,390.82,338.75Z" style="fill:#d1d1d1"></path><path d="M398.5,348.71a3.7,3.7,0,1,1-3.7-3.7A3.7,3.7,0,0,1,398.5,348.71Z" style="fill:#b0b0b0"></path><path d="M380.29,341a3.7,3.7,0,1,1-3.7-3.7A3.7,3.7,0,0,1,380.29,341Z" style="fill:#b0b0b0"></path><path d="M355,325.37a3.7,3.7,0,1,1-3.7-3.69A3.7,3.7,0,0,1,355,325.37Z" style="fill:#d1d1d1"></path><path d="M360.09,315.42a3.7,3.7,0,1,1-3.7-3.7A3.7,3.7,0,0,1,360.09,315.42Z" style="fill:#d1d1d1"></path><path d="M367.77,325.37a3.7,3.7,0,1,1-3.7-3.69A3.7,3.7,0,0,1,367.77,325.37Z" style="fill:#b0b0b0"></path><path d="M349.56,317.69a3.7,3.7,0,1,1-3.7-3.7A3.7,3.7,0,0,1,349.56,317.69Z" style="fill:#b0b0b0"></path><path d="M325.37,333.91a3.7,3.7,0,1,1-3.69-3.7A3.7,3.7,0,0,1,325.37,333.91Z" style="fill:#d1d1d1"></path><path d="M330.5,324a3.7,3.7,0,1,1-3.7-3.7A3.7,3.7,0,0,1,330.5,324Z" style="fill:#d1d1d1"></path><path d="M338.18,333.91a3.7,3.7,0,1,1-3.7-3.7A3.7,3.7,0,0,1,338.18,333.91Z" style="fill:#b0b0b0"></path><path d="M320,326.23a3.7,3.7,0,1,1-3.7-3.7A3.7,3.7,0,0,1,320,326.23Z" style="fill:#b0b0b0"></path><path d="M346.43,347.57a3.7,3.7,0,1,1-3.7-3.7A3.7,3.7,0,0,1,346.43,347.57Z" style="fill:#d1d1d1"></path><path d="M351.55,337.61a3.7,3.7,0,1,1-3.7-3.7A3.7,3.7,0,0,1,351.55,337.61Z" style="fill:#d1d1d1"></path><path d="M359.23,347.57a3.7,3.7,0,1,1-3.7-3.7A3.7,3.7,0,0,1,359.23,347.57Z" style="fill:#b0b0b0"></path><path d="M341,339.89a3.7,3.7,0,1,1-3.7-3.7A3.69,3.69,0,0,1,341,339.89Z" style="fill:#b0b0b0"></path><path d="M341.88,325.37a3.7,3.7,0,1,1-3.7-3.69A3.7,3.7,0,0,1,341.88,325.37Z" style="fill:#d1d1d1"></path><path d="M347,315.42a3.7,3.7,0,1,1-3.7-3.7A3.7,3.7,0,0,1,347,315.42Z" style="fill:#d1d1d1"></path><path d="M354.68,325.37a3.7,3.7,0,1,1-3.7-3.69A3.7,3.7,0,0,1,354.68,325.37Z" style="fill:#b0b0b0"></path><path d="M336.47,317.69a3.7,3.7,0,1,1-3.7-3.7A3.69,3.69,0,0,1,336.47,317.69Z" style="fill:#b0b0b0"></path><path d="M372.61,321.39a3.7,3.7,0,1,1-3.7-3.7A3.7,3.7,0,0,1,372.61,321.39Z" style="fill:#d1d1d1"></path><path d="M377.73,311.43a3.7,3.7,0,1,1-3.7-3.7A3.7,3.7,0,0,1,377.73,311.43Z" style="fill:#d1d1d1"></path><path d="M385.41,321.39a3.7,3.7,0,1,1-3.7-3.7A3.7,3.7,0,0,1,385.41,321.39Z" style="fill:#b0b0b0"></path><path d="M367.2,313.71a3.7,3.7,0,1,1-3.7-3.7A3.7,3.7,0,0,1,367.2,313.71Z" style="fill:#b0b0b0"></path><path d="M312.86,319.11a3.7,3.7,0,1,1-3.7-3.69A3.7,3.7,0,0,1,312.86,319.11Z" style="fill:#d1d1d1"></path><path d="M318,309.16a3.7,3.7,0,1,1-3.7-3.7A3.7,3.7,0,0,1,318,309.16Z" style="fill:#d1d1d1"></path><path d="M325.66,319.11a3.7,3.7,0,1,1-3.7-3.69A3.7,3.7,0,0,1,325.66,319.11Z" style="fill:#b0b0b0"></path><path d="M307.45,311.43a3.7,3.7,0,1,1-3.7-3.7A3.7,3.7,0,0,1,307.45,311.43Z" style="fill:#b0b0b0"></path><path d="M297.49,334.48a3.7,3.7,0,1,1-3.7-3.7A3.7,3.7,0,0,1,297.49,334.48Z" style="fill:#d1d1d1"></path><path d="M302.61,324.52a3.7,3.7,0,1,1-3.7-3.7A3.7,3.7,0,0,1,302.61,324.52Z" style="fill:#d1d1d1"></path><path d="M310.29,334.48a3.7,3.7,0,1,1-3.69-3.7A3.7,3.7,0,0,1,310.29,334.48Z" style="fill:#b0b0b0"></path><path d="M292.08,326.8a3.7,3.7,0,1,1-3.69-3.7A3.7,3.7,0,0,1,292.08,326.8Z" style="fill:#b0b0b0"></path><path d="M319.11,344.72a3.7,3.7,0,1,1-3.69-3.7A3.69,3.69,0,0,1,319.11,344.72Z" style="fill:#d1d1d1"></path><path d="M324.24,334.76a3.7,3.7,0,1,1-3.7-3.69A3.7,3.7,0,0,1,324.24,334.76Z" style="fill:#d1d1d1"></path><path d="M331.92,344.72a3.7,3.7,0,1,1-3.7-3.7A3.7,3.7,0,0,1,331.92,344.72Z" style="fill:#b0b0b0"></path><path d="M313.71,337a3.7,3.7,0,1,1-3.7-3.7A3.7,3.7,0,0,1,313.71,337Z" style="fill:#b0b0b0"></path><path d="M275.3,344.44a3.7,3.7,0,1,1-3.7-3.7A3.7,3.7,0,0,1,275.3,344.44Z" style="fill:#d1d1d1"></path><path d="M280.42,334.48a3.7,3.7,0,1,1-3.7-3.7A3.7,3.7,0,0,1,280.42,334.48Z" style="fill:#d1d1d1"></path><path d="M288.1,344.44a3.7,3.7,0,1,1-3.7-3.7A3.7,3.7,0,0,1,288.1,344.44Z" style="fill:#b0b0b0"></path><path d="M269.89,336.76a3.7,3.7,0,1,1-3.7-3.7A3.69,3.69,0,0,1,269.89,336.76Z" style="fill:#b0b0b0"></path><path d="M283.26,324a3.7,3.7,0,1,1-3.69-3.7A3.7,3.7,0,0,1,283.26,324Z" style="fill:#d1d1d1"></path><path d="M288.39,314a3.7,3.7,0,1,1-3.7-3.7A3.7,3.7,0,0,1,288.39,314Z" style="fill:#d1d1d1"></path><path d="M296.07,324a3.7,3.7,0,1,1-3.7-3.7A3.7,3.7,0,0,1,296.07,324Z" style="fill:#b0b0b0"></path><path d="M277.86,316.27a3.7,3.7,0,1,1-3.7-3.7A3.7,3.7,0,0,1,277.86,316.27Z" style="fill:#b0b0b0"></path><path d="M298.06,313.71a3.7,3.7,0,1,1-3.7-3.7A3.7,3.7,0,0,1,298.06,313.71Z" style="fill:#d1d1d1"></path><path d="M303.18,303.75a3.7,3.7,0,1,1-3.7-3.7A3.7,3.7,0,0,1,303.18,303.75Z" style="fill:#d1d1d1"></path><path d="M310.86,313.71a3.7,3.7,0,1,1-3.7-3.7A3.7,3.7,0,0,1,310.86,313.71Z" style="fill:#b0b0b0"></path><path d="M292.65,306a3.7,3.7,0,1,1-3.7-3.7A3.7,3.7,0,0,1,292.65,306Z" style="fill:#b0b0b0"></path><path d="M258.8,314.85a3.7,3.7,0,1,1-3.7-3.7A3.7,3.7,0,0,1,258.8,314.85Z" style="fill:#d1d1d1"></path><path d="M263.92,304.89a3.7,3.7,0,1,1-3.7-3.7A3.7,3.7,0,0,1,263.92,304.89Z" style="fill:#d1d1d1"></path><path d="M271.6,314.85a3.7,3.7,0,1,1-3.7-3.7A3.7,3.7,0,0,1,271.6,314.85Z" style="fill:#b0b0b0"></path><path d="M253.39,307.16a3.7,3.7,0,1,1-3.7-3.69A3.7,3.7,0,0,1,253.39,307.16Z" style="fill:#b0b0b0"></path><path d="M249.69,332.49a3.7,3.7,0,1,1-3.7-3.7A3.7,3.7,0,0,1,249.69,332.49Z" style="fill:#d1d1d1"></path><path d="M254.81,322.53a3.7,3.7,0,1,1-3.7-3.7A3.7,3.7,0,0,1,254.81,322.53Z" style="fill:#d1d1d1"></path><path d="M262.49,332.49a3.7,3.7,0,1,1-3.69-3.7A3.7,3.7,0,0,1,262.49,332.49Z" style="fill:#b0b0b0"></path><path d="M244.28,324.81a3.7,3.7,0,1,1-3.69-3.7A3.69,3.69,0,0,1,244.28,324.81Z" style="fill:#b0b0b0"></path><path d="M267.33,333.06a3.7,3.7,0,1,1-3.7-3.7A3.7,3.7,0,0,1,267.33,333.06Z" style="fill:#d1d1d1"></path><path d="M272.45,323.1a3.7,3.7,0,1,1-3.7-3.7A3.7,3.7,0,0,1,272.45,323.1Z" style="fill:#d1d1d1"></path><path d="M280.13,333.06a3.7,3.7,0,1,1-3.69-3.7A3.7,3.7,0,0,1,280.13,333.06Z" style="fill:#b0b0b0"></path><path d="M261.92,325.37a3.7,3.7,0,1,1-3.69-3.69A3.69,3.69,0,0,1,261.92,325.37Z" style="fill:#b0b0b0"></path><path d="M238.88,342.16a3.7,3.7,0,1,1-3.7-3.7A3.7,3.7,0,0,1,238.88,342.16Z" style="fill:#d1d1d1"></path><path d="M244,332.2a3.7,3.7,0,1,1-3.7-3.7A3.7,3.7,0,0,1,244,332.2Z" style="fill:#d1d1d1"></path><path d="M251.68,342.16a3.7,3.7,0,1,1-3.7-3.7A3.7,3.7,0,0,1,251.68,342.16Z" style="fill:#b0b0b0"></path><path d="M233.47,334.48a3.7,3.7,0,1,1-3.7-3.7A3.7,3.7,0,0,1,233.47,334.48Z" style="fill:#b0b0b0"></path><path d="M244,320a3.7,3.7,0,1,1-3.7-3.7A3.7,3.7,0,0,1,244,320Z" style="fill:#d1d1d1"></path><path d="M249.12,310a3.7,3.7,0,1,1-3.7-3.7A3.7,3.7,0,0,1,249.12,310Z" style="fill:#d1d1d1"></path><path d="M256.8,320a3.7,3.7,0,1,1-3.7-3.7A3.7,3.7,0,0,1,256.8,320Z" style="fill:#b0b0b0"></path><path d="M238.59,312.29a3.7,3.7,0,1,1-3.7-3.7A3.7,3.7,0,0,1,238.59,312.29Z" style="fill:#b0b0b0"></path><path d="M217.82,321.11a3.7,3.7,0,1,1-3.7-3.7A3.7,3.7,0,0,1,217.82,321.11Z" style="fill:#d1d1d1"></path><path d="M222.94,311.15a3.7,3.7,0,1,1-3.69-3.7A3.7,3.7,0,0,1,222.94,311.15Z" style="fill:#d1d1d1"></path><path d="M230.63,321.11a3.7,3.7,0,1,1-3.7-3.7A3.7,3.7,0,0,1,230.63,321.11Z" style="fill:#b0b0b0"></path><path d="M212.42,313.42a3.7,3.7,0,1,1-3.7-3.69A3.7,3.7,0,0,1,212.42,313.42Z" style="fill:#b0b0b0"></path><path d="M213.84,344.44a3.7,3.7,0,1,1-3.7-3.7A3.7,3.7,0,0,1,213.84,344.44Z" style="fill:#d1d1d1"></path><path d="M219,334.48a3.7,3.7,0,1,1-3.7-3.7A3.7,3.7,0,0,1,219,334.48Z" style="fill:#d1d1d1"></path><path d="M226.64,344.44a3.7,3.7,0,1,1-3.7-3.7A3.7,3.7,0,0,1,226.64,344.44Z" style="fill:#b0b0b0"></path><path d="M208.43,336.76a3.7,3.7,0,1,1-3.7-3.7A3.69,3.69,0,0,1,208.43,336.76Z" style="fill:#b0b0b0"></path><path d="M183.68,331.07a3.7,3.7,0,1,1-3.7-3.7A3.7,3.7,0,0,1,183.68,331.07Z" style="fill:#d1d1d1"></path><path d="M188.8,321.11a3.7,3.7,0,1,1-3.7-3.7A3.7,3.7,0,0,1,188.8,321.11Z" style="fill:#d1d1d1"></path><path d="M196.48,331.07a3.7,3.7,0,1,1-3.7-3.7A3.69,3.69,0,0,1,196.48,331.07Z" style="fill:#b0b0b0"></path><path d="M178.27,323.38a3.7,3.7,0,1,1-3.7-3.7A3.69,3.69,0,0,1,178.27,323.38Z" style="fill:#b0b0b0"></path><path d="M183.68,319.68A3.7,3.7,0,1,1,180,316,3.7,3.7,0,0,1,183.68,319.68Z" style="fill:#d1d1d1"></path><path d="M188.8,309.73a3.7,3.7,0,1,1-3.7-3.7A3.69,3.69,0,0,1,188.8,309.73Z" style="fill:#d1d1d1"></path><path d="M196.48,319.68a3.7,3.7,0,1,1-3.7-3.69A3.69,3.69,0,0,1,196.48,319.68Z" style="fill:#b0b0b0"></path><path d="M178.27,312a3.7,3.7,0,1,1-3.7-3.7A3.7,3.7,0,0,1,178.27,312Z" style="fill:#b0b0b0"></path><path d="M158.64,331.92a3.7,3.7,0,1,1-3.7-3.7A3.7,3.7,0,0,1,158.64,331.92Z" style="fill:#d1d1d1"></path><path d="M163.76,322a3.7,3.7,0,1,1-3.7-3.7A3.7,3.7,0,0,1,163.76,322Z" style="fill:#d1d1d1"></path><path d="M171.45,331.92a3.7,3.7,0,1,1-3.7-3.7A3.7,3.7,0,0,1,171.45,331.92Z" style="fill:#b0b0b0"></path><path d="M153.24,324.24a3.7,3.7,0,1,1-3.7-3.7A3.7,3.7,0,0,1,153.24,324.24Z" style="fill:#b0b0b0"></path><path d="M353.26,312a3.7,3.7,0,1,1-3.7-3.7A3.7,3.7,0,0,1,353.26,312Z" style="fill:#d1d1d1"></path><path d="M358.38,302a3.7,3.7,0,1,1-3.7-3.7A3.7,3.7,0,0,1,358.38,302Z" style="fill:#d1d1d1"></path><path d="M366.06,312a3.7,3.7,0,1,1-3.7-3.7A3.7,3.7,0,0,1,366.06,312Z" style="fill:#b0b0b0"></path><path d="M347.85,304.32a3.7,3.7,0,1,1-3.7-3.7A3.7,3.7,0,0,1,347.85,304.32Z" style="fill:#b0b0b0"></path><path d="M138.72,336.19a3.7,3.7,0,1,1-3.69-3.7A3.7,3.7,0,0,1,138.72,336.19Z" style="fill:#d1d1d1"></path><path d="M143.85,326.23a3.7,3.7,0,1,1-3.7-3.7A3.7,3.7,0,0,1,143.85,326.23Z" style="fill:#d1d1d1"></path><path d="M151.53,336.19a3.7,3.7,0,1,1-3.7-3.7A3.7,3.7,0,0,1,151.53,336.19Z" style="fill:#b0b0b0"></path><path d="M133.32,328.5a3.7,3.7,0,1,1-3.7-3.69A3.7,3.7,0,0,1,133.32,328.5Z" style="fill:#b0b0b0"></path><path d="M147.26,320.25a3.7,3.7,0,1,1-3.7-3.7A3.7,3.7,0,0,1,147.26,320.25Z" style="fill:#d1d1d1"></path><path d="M152.38,310.29a3.7,3.7,0,1,1-3.7-3.69A3.69,3.69,0,0,1,152.38,310.29Z" style="fill:#d1d1d1"></path><path d="M160.06,320.25a3.7,3.7,0,1,1-3.69-3.7A3.69,3.69,0,0,1,160.06,320.25Z" style="fill:#b0b0b0"></path><path d="M141.85,312.57a3.7,3.7,0,1,1-3.69-3.7A3.7,3.7,0,0,1,141.85,312.57Z" style="fill:#b0b0b0"></path><circle cx="118.24" cy="313.42" r="3.7" style="fill:#d1d1d1"></circle><path d="M127.06,303.47a3.7,3.7,0,1,1-3.7-3.7A3.7,3.7,0,0,1,127.06,303.47Z" style="fill:#d1d1d1"></path><path d="M134.74,313.42a3.7,3.7,0,1,1-3.7-3.69A3.69,3.69,0,0,1,134.74,313.42Z" style="fill:#b0b0b0"></path><path d="M116.53,305.74a3.7,3.7,0,1,1-3.7-3.7A3.7,3.7,0,0,1,116.53,305.74Z" style="fill:#b0b0b0"></path><path d="M170.88,319.11a3.7,3.7,0,1,1-3.7-3.69A3.7,3.7,0,0,1,170.88,319.11Z" style="fill:#d1d1d1"></path><path d="M176,309.16a3.7,3.7,0,1,1-3.7-3.7A3.7,3.7,0,0,1,176,309.16Z" style="fill:#d1d1d1"></path><path d="M183.68,319.11a3.7,3.7,0,1,1-3.7-3.69A3.7,3.7,0,0,1,183.68,319.11Z" style="fill:#b0b0b0"></path><path d="M165.47,311.43a3.7,3.7,0,1,1-3.7-3.7A3.7,3.7,0,0,1,165.47,311.43Z" style="fill:#b0b0b0"></path><path d="M118.24,339.6a3.7,3.7,0,1,1-3.7-3.7A3.7,3.7,0,0,1,118.24,339.6Z" style="fill:#d1d1d1"></path><path d="M123.36,329.64a3.7,3.7,0,1,1-3.7-3.7A3.7,3.7,0,0,1,123.36,329.64Z" style="fill:#d1d1d1"></path><path d="M131,339.6a3.7,3.7,0,1,1-3.7-3.7A3.7,3.7,0,0,1,131,339.6Z" style="fill:#b0b0b0"></path><path d="M112.83,331.92a3.7,3.7,0,1,1-3.7-3.7A3.7,3.7,0,0,1,112.83,331.92Z" style="fill:#b0b0b0"></path><path d="M98.32,340.74a3.7,3.7,0,1,1-3.7-3.7A3.7,3.7,0,0,1,98.32,340.74Z" style="fill:#d1d1d1"></path><path d="M103.44,330.78a3.7,3.7,0,1,1-3.7-3.7A3.7,3.7,0,0,1,103.44,330.78Z" style="fill:#d1d1d1"></path><path d="M111.13,340.74a3.7,3.7,0,1,1-3.7-3.7A3.7,3.7,0,0,1,111.13,340.74Z" style="fill:#b0b0b0"></path><path d="M92.92,333.06a3.7,3.7,0,1,1-3.7-3.7A3.7,3.7,0,0,1,92.92,333.06Z" style="fill:#b0b0b0"></path><path d="M105.15,322a3.72,3.72,0,1,1-3.7-3.34A3.53,3.53,0,0,1,105.15,322Z" style="fill:#d1d1d1"></path><path d="M110.27,313.06a3.72,3.72,0,1,1-3.7-3.33A3.53,3.53,0,0,1,110.27,313.06Z" style="fill:#d1d1d1"></path><path d="M118,322a3.71,3.71,0,1,1-3.69-3.34A3.52,3.52,0,0,1,118,322Z" style="fill:#b0b0b0"></path><path d="M99.74,315.11a3.72,3.72,0,1,1-3.69-3.33A3.53,3.53,0,0,1,99.74,315.11Z" style="fill:#b0b0b0"></path><path d="M386.26,312a3.7,3.7,0,1,1-3.7-3.7A3.7,3.7,0,0,1,386.26,312Z" style="fill:#d1d1d1"></path><path d="M391.38,302a3.7,3.7,0,1,1-3.69-3.7A3.69,3.69,0,0,1,391.38,302Z" style="fill:#d1d1d1"></path><path d="M399.07,312a3.7,3.7,0,1,1-3.7-3.7A3.7,3.7,0,0,1,399.07,312Z" style="fill:#b0b0b0"></path><path d="M380.86,304.32a3.7,3.7,0,1,1-3.7-3.7A3.7,3.7,0,0,1,380.86,304.32Z" style="fill:#b0b0b0"></path><path d="M193.92,341.31a3.7,3.7,0,1,1-3.7-3.7A3.7,3.7,0,0,1,193.92,341.31Z" style="fill:#d1d1d1"></path><path d="M199,331.35a3.7,3.7,0,1,1-3.69-3.7A3.7,3.7,0,0,1,199,331.35Z" style="fill:#d1d1d1"></path><path d="M206.73,341.31a3.7,3.7,0,1,1-3.7-3.7A3.7,3.7,0,0,1,206.73,341.31Z" style="fill:#b0b0b0"></path><path d="M188.52,333.63a3.7,3.7,0,1,1-3.7-3.7A3.7,3.7,0,0,1,188.52,333.63Z" style="fill:#b0b0b0"></path><path d="M197.05,324.81a3.7,3.7,0,1,1-3.7-3.7A3.69,3.69,0,0,1,197.05,324.81Z" style="fill:#d1d1d1"></path><path d="M202.17,314.85a3.7,3.7,0,1,1-3.69-3.7A3.7,3.7,0,0,1,202.17,314.85Z" style="fill:#d1d1d1"></path><path d="M209.86,324.81a3.7,3.7,0,1,1-3.7-3.7A3.7,3.7,0,0,1,209.86,324.81Z" style="fill:#b0b0b0"></path><path d="M191.65,317.12a3.7,3.7,0,1,1-3.7-3.7A3.7,3.7,0,0,1,191.65,317.12Z" style="fill:#b0b0b0"></path><path d="M376.87,289.79a3.7,3.7,0,1,1-3.69-3.7A3.69,3.69,0,0,1,376.87,289.79Z" style="fill:#d1d1d1"></path><path d="M382,279.83a3.7,3.7,0,1,1-3.7-3.69A3.7,3.7,0,0,1,382,279.83Z" style="fill:#d1d1d1"></path><path d="M389.68,289.79a3.7,3.7,0,1,1-3.7-3.7A3.7,3.7,0,0,1,389.68,289.79Z" style="fill:#b0b0b0"></path><path d="M371.47,282.11a3.7,3.7,0,1,1-3.7-3.7A3.7,3.7,0,0,1,371.47,282.11Z" style="fill:#b0b0b0"></path><path d="M398.78,285.81a3.7,3.7,0,1,1-3.7-3.7A3.7,3.7,0,0,1,398.78,285.81Z" style="fill:#d1d1d1"></path><path d="M403.9,275.85a3.7,3.7,0,1,1-3.69-3.7A3.7,3.7,0,0,1,403.9,275.85Z" style="fill:#d1d1d1"></path><path d="M411.59,285.81a3.7,3.7,0,1,1-3.7-3.7A3.7,3.7,0,0,1,411.59,285.81Z" style="fill:#b0b0b0"></path><path d="M393.38,278.13a3.7,3.7,0,1,1-3.7-3.7A3.7,3.7,0,0,1,393.38,278.13Z" style="fill:#b0b0b0"></path><path d="M161.77,273a3.7,3.7,0,1,1-3.7-3.7A3.69,3.69,0,0,1,161.77,273Z" style="fill:#d1d1d1"></path><path d="M166.89,263.05a3.7,3.7,0,1,1-3.7-3.7A3.7,3.7,0,0,1,166.89,263.05Z" style="fill:#d1d1d1"></path><path d="M174.57,273a3.7,3.7,0,1,1-3.69-3.7A3.69,3.69,0,0,1,174.57,273Z" style="fill:#b0b0b0"></path><path d="M156.37,265.32a3.7,3.7,0,1,1-3.7-3.7A3.7,3.7,0,0,1,156.37,265.32Z" style="fill:#b0b0b0"></path><path d="M324.81,275.57a3.7,3.7,0,1,1-3.7-3.7A3.7,3.7,0,0,1,324.81,275.57Z" style="fill:#d1d1d1"></path><path d="M329.93,265.61a3.7,3.7,0,1,1-3.7-3.7A3.7,3.7,0,0,1,329.93,265.61Z" style="fill:#d1d1d1"></path><path d="M337.61,275.57a3.7,3.7,0,1,1-3.7-3.7A3.7,3.7,0,0,1,337.61,275.57Z" style="fill:#b0b0b0"></path><path d="M319.4,267.88a3.7,3.7,0,1,1-3.7-3.69A3.7,3.7,0,0,1,319.4,267.88Z" style="fill:#b0b0b0"></path><path d="M360.09,300.32a3.7,3.7,0,1,1-3.7-3.7A3.7,3.7,0,0,1,360.09,300.32Z" style="fill:#d1d1d1"></path><path d="M365.21,290.36a3.7,3.7,0,1,1-3.7-3.7A3.7,3.7,0,0,1,365.21,290.36Z" style="fill:#d1d1d1"></path><path d="M372.89,300.32a3.7,3.7,0,1,1-3.7-3.7A3.7,3.7,0,0,1,372.89,300.32Z" style="fill:#b0b0b0"></path><path d="M354.68,292.64a3.7,3.7,0,1,1-3.7-3.7A3.7,3.7,0,0,1,354.68,292.64Z" style="fill:#b0b0b0"></path><path d="M385.69,309.71A3.7,3.7,0,1,1,382,306,3.7,3.7,0,0,1,385.69,309.71Z" style="fill:#d1d1d1"></path><path d="M390.82,299.75a3.7,3.7,0,1,1-3.7-3.7A3.7,3.7,0,0,1,390.82,299.75Z" style="fill:#d1d1d1"></path><path d="M398.5,309.71a3.7,3.7,0,1,1-3.7-3.7A3.7,3.7,0,0,1,398.5,309.71Z" style="fill:#b0b0b0"></path><path d="M380.29,302a3.7,3.7,0,1,1-3.7-3.7A3.7,3.7,0,0,1,380.29,302Z" style="fill:#b0b0b0"></path><path d="M355,286.38a3.7,3.7,0,1,1-3.7-3.7A3.7,3.7,0,0,1,355,286.38Z" style="fill:#d1d1d1"></path><path d="M360.09,276.42a3.7,3.7,0,1,1-3.7-3.7A3.7,3.7,0,0,1,360.09,276.42Z" style="fill:#d1d1d1"></path><path d="M367.77,286.38a3.7,3.7,0,1,1-3.7-3.7A3.7,3.7,0,0,1,367.77,286.38Z" style="fill:#b0b0b0"></path><path d="M349.56,278.7a3.7,3.7,0,1,1-3.7-3.7A3.7,3.7,0,0,1,349.56,278.7Z" style="fill:#b0b0b0"></path><path d="M325.37,294.91a3.7,3.7,0,1,1-3.69-3.69A3.69,3.69,0,0,1,325.37,294.91Z" style="fill:#d1d1d1"></path><path d="M330.5,285a3.7,3.7,0,1,1-3.7-3.7A3.7,3.7,0,0,1,330.5,285Z" style="fill:#d1d1d1"></path><path d="M338.18,294.91a3.7,3.7,0,1,1-3.7-3.69A3.7,3.7,0,0,1,338.18,294.91Z" style="fill:#b0b0b0"></path><path d="M320,287.23a3.7,3.7,0,1,1-3.7-3.7A3.7,3.7,0,0,1,320,287.23Z" style="fill:#b0b0b0"></path><path d="M346.43,308.57a3.7,3.7,0,1,1-3.7-3.7A3.7,3.7,0,0,1,346.43,308.57Z" style="fill:#d1d1d1"></path><path d="M351.55,298.61a3.7,3.7,0,1,1-3.7-3.7A3.69,3.69,0,0,1,351.55,298.61Z" style="fill:#d1d1d1"></path><path d="M359.23,308.57a3.7,3.7,0,1,1-3.7-3.7A3.7,3.7,0,0,1,359.23,308.57Z" style="fill:#b0b0b0"></path><path d="M341,300.89a3.7,3.7,0,1,1-3.7-3.7A3.7,3.7,0,0,1,341,300.89Z" style="fill:#b0b0b0"></path><path d="M341.88,286.38a3.7,3.7,0,1,1-3.7-3.7A3.7,3.7,0,0,1,341.88,286.38Z" style="fill:#d1d1d1"></path><path d="M347,276.42a3.7,3.7,0,1,1-3.7-3.7A3.7,3.7,0,0,1,347,276.42Z" style="fill:#d1d1d1"></path><path d="M354.68,286.38a3.7,3.7,0,1,1-3.7-3.7A3.7,3.7,0,0,1,354.68,286.38Z" style="fill:#b0b0b0"></path><path d="M336.47,278.7a3.7,3.7,0,1,1-3.7-3.7A3.7,3.7,0,0,1,336.47,278.7Z" style="fill:#b0b0b0"></path><path d="M372.61,282.4a3.7,3.7,0,1,1-3.7-3.7A3.7,3.7,0,0,1,372.61,282.4Z" style="fill:#d1d1d1"></path><path d="M377.73,272.44a3.7,3.7,0,1,1-3.7-3.7A3.7,3.7,0,0,1,377.73,272.44Z" style="fill:#d1d1d1"></path><path d="M385.41,282.4a3.7,3.7,0,1,1-3.7-3.7A3.7,3.7,0,0,1,385.41,282.4Z" style="fill:#b0b0b0"></path><path d="M367.2,274.71a3.7,3.7,0,1,1-3.7-3.7A3.7,3.7,0,0,1,367.2,274.71Z" style="fill:#b0b0b0"></path><path d="M312.86,280.12a3.7,3.7,0,1,1-3.7-3.7A3.7,3.7,0,0,1,312.86,280.12Z" style="fill:#d1d1d1"></path><path d="M318,270.16a3.7,3.7,0,1,1-3.7-3.7A3.7,3.7,0,0,1,318,270.16Z" style="fill:#d1d1d1"></path><path d="M325.66,280.12a3.7,3.7,0,1,1-3.7-3.7A3.7,3.7,0,0,1,325.66,280.12Z" style="fill:#b0b0b0"></path><path d="M307.45,272.44a3.7,3.7,0,1,1-3.7-3.7A3.7,3.7,0,0,1,307.45,272.44Z" style="fill:#b0b0b0"></path><path d="M297.49,295.48a3.7,3.7,0,1,1-3.7-3.7A3.7,3.7,0,0,1,297.49,295.48Z" style="fill:#d1d1d1"></path><path d="M302.61,285.53a3.7,3.7,0,1,1-3.7-3.7A3.69,3.69,0,0,1,302.61,285.53Z" style="fill:#d1d1d1"></path><path d="M310.29,295.48a3.7,3.7,0,1,1-3.69-3.7A3.69,3.69,0,0,1,310.29,295.48Z" style="fill:#b0b0b0"></path><path d="M292.08,287.8a3.7,3.7,0,1,1-3.69-3.7A3.7,3.7,0,0,1,292.08,287.8Z" style="fill:#b0b0b0"></path><path d="M319.11,305.73a3.7,3.7,0,1,1-3.69-3.7A3.7,3.7,0,0,1,319.11,305.73Z" style="fill:#d1d1d1"></path><path d="M324.24,295.77a3.7,3.7,0,1,1-3.7-3.7A3.7,3.7,0,0,1,324.24,295.77Z" style="fill:#d1d1d1"></path><path d="M331.92,305.73a3.7,3.7,0,1,1-3.7-3.7A3.7,3.7,0,0,1,331.92,305.73Z" style="fill:#b0b0b0"></path><path d="M313.71,298a3.7,3.7,0,1,1-3.7-3.69A3.7,3.7,0,0,1,313.71,298Z" style="fill:#b0b0b0"></path><path d="M275.3,305.44a3.7,3.7,0,1,1-3.7-3.7A3.7,3.7,0,0,1,275.3,305.44Z" style="fill:#d1d1d1"></path><path d="M280.42,295.48a3.7,3.7,0,1,1-3.7-3.7A3.7,3.7,0,0,1,280.42,295.48Z" style="fill:#d1d1d1"></path><path d="M288.1,305.44a3.7,3.7,0,1,1-3.7-3.7A3.7,3.7,0,0,1,288.1,305.44Z" style="fill:#b0b0b0"></path><path d="M269.89,297.76a3.7,3.7,0,1,1-3.7-3.7A3.7,3.7,0,0,1,269.89,297.76Z" style="fill:#b0b0b0"></path><path d="M283.26,285a3.7,3.7,0,1,1-3.69-3.7A3.69,3.69,0,0,1,283.26,285Z" style="fill:#d1d1d1"></path><path d="M288.39,275a3.7,3.7,0,1,1-3.7-3.7A3.7,3.7,0,0,1,288.39,275Z" style="fill:#d1d1d1"></path><path d="M296.07,285a3.7,3.7,0,1,1-3.7-3.7A3.7,3.7,0,0,1,296.07,285Z" style="fill:#b0b0b0"></path><path d="M277.86,277.27a3.7,3.7,0,1,1-3.7-3.7A3.7,3.7,0,0,1,277.86,277.27Z" style="fill:#b0b0b0"></path><path d="M298.06,274.71a3.7,3.7,0,1,1-3.7-3.7A3.7,3.7,0,0,1,298.06,274.71Z" style="fill:#d1d1d1"></path><path d="M303.18,264.75a3.7,3.7,0,1,1-3.7-3.69A3.69,3.69,0,0,1,303.18,264.75Z" style="fill:#d1d1d1"></path><path d="M310.86,274.71a3.7,3.7,0,1,1-3.7-3.7A3.69,3.69,0,0,1,310.86,274.71Z" style="fill:#b0b0b0"></path><path d="M292.65,267a3.7,3.7,0,1,1-3.7-3.7A3.7,3.7,0,0,1,292.65,267Z" style="fill:#b0b0b0"></path><path d="M258.8,275.85a3.7,3.7,0,1,1-3.7-3.7A3.7,3.7,0,0,1,258.8,275.85Z" style="fill:#d1d1d1"></path><path d="M263.92,265.89a3.7,3.7,0,1,1-3.7-3.7A3.7,3.7,0,0,1,263.92,265.89Z" style="fill:#d1d1d1"></path><path d="M271.6,275.85a3.7,3.7,0,1,1-3.7-3.7A3.7,3.7,0,0,1,271.6,275.85Z" style="fill:#b0b0b0"></path><path d="M253.39,268.17a3.7,3.7,0,1,1-3.7-3.7A3.7,3.7,0,0,1,253.39,268.17Z" style="fill:#b0b0b0"></path><path d="M249.69,293.49a3.7,3.7,0,1,1-3.7-3.7A3.7,3.7,0,0,1,249.69,293.49Z" style="fill:#d1d1d1"></path><path d="M254.81,283.53a3.7,3.7,0,1,1-3.7-3.7A3.69,3.69,0,0,1,254.81,283.53Z" style="fill:#d1d1d1"></path><path d="M262.49,293.49a3.7,3.7,0,1,1-3.69-3.7A3.7,3.7,0,0,1,262.49,293.49Z" style="fill:#b0b0b0"></path><path d="M244.28,285.81a3.7,3.7,0,1,1-3.69-3.7A3.7,3.7,0,0,1,244.28,285.81Z" style="fill:#b0b0b0"></path><path d="M267.33,294.06a3.7,3.7,0,1,1-3.7-3.7A3.7,3.7,0,0,1,267.33,294.06Z" style="fill:#d1d1d1"></path><path d="M272.45,284.1a3.7,3.7,0,1,1-3.7-3.7A3.69,3.69,0,0,1,272.45,284.1Z" style="fill:#d1d1d1"></path><path d="M280.13,294.06a3.7,3.7,0,1,1-3.69-3.7A3.7,3.7,0,0,1,280.13,294.06Z" style="fill:#b0b0b0"></path><path d="M261.92,286.38a3.7,3.7,0,1,1-3.69-3.7A3.7,3.7,0,0,1,261.92,286.38Z" style="fill:#b0b0b0"></path><path d="M238.88,303.17a3.7,3.7,0,1,1-3.7-3.7A3.7,3.7,0,0,1,238.88,303.17Z" style="fill:#d1d1d1"></path><path d="M244,293.21a3.7,3.7,0,1,1-3.7-3.7A3.7,3.7,0,0,1,244,293.21Z" style="fill:#d1d1d1"></path><path d="M251.68,303.17a3.7,3.7,0,1,1-3.7-3.7A3.69,3.69,0,0,1,251.68,303.17Z" style="fill:#b0b0b0"></path><path d="M233.47,295.48a3.7,3.7,0,1,1-3.7-3.7A3.69,3.69,0,0,1,233.47,295.48Z" style="fill:#b0b0b0"></path><path d="M244,281a3.7,3.7,0,1,1-3.7-3.7A3.7,3.7,0,0,1,244,281Z" style="fill:#d1d1d1"></path><path d="M249.12,271a3.7,3.7,0,1,1-3.7-3.69A3.69,3.69,0,0,1,249.12,271Z" style="fill:#d1d1d1"></path><path d="M256.8,281a3.7,3.7,0,1,1-3.7-3.7A3.69,3.69,0,0,1,256.8,281Z" style="fill:#b0b0b0"></path><path d="M238.59,273.29a3.7,3.7,0,1,1-3.7-3.7A3.7,3.7,0,0,1,238.59,273.29Z" style="fill:#b0b0b0"></path><path d="M217.82,282.11a3.7,3.7,0,1,1-3.7-3.7A3.7,3.7,0,0,1,217.82,282.11Z" style="fill:#d1d1d1"></path><path d="M222.94,272.15a3.7,3.7,0,1,1-3.69-3.7A3.69,3.69,0,0,1,222.94,272.15Z" style="fill:#d1d1d1"></path><path d="M230.63,282.11a3.7,3.7,0,1,1-3.7-3.7A3.7,3.7,0,0,1,230.63,282.11Z" style="fill:#b0b0b0"></path><path d="M212.42,274.43a3.7,3.7,0,1,1-3.7-3.7A3.7,3.7,0,0,1,212.42,274.43Z" style="fill:#b0b0b0"></path><path d="M213.84,305.44a3.7,3.7,0,1,1-3.7-3.7A3.7,3.7,0,0,1,213.84,305.44Z" style="fill:#d1d1d1"></path><path d="M219,295.48a3.7,3.7,0,1,1-3.7-3.7A3.69,3.69,0,0,1,219,295.48Z" style="fill:#d1d1d1"></path><path d="M226.64,305.44a3.7,3.7,0,1,1-3.7-3.7A3.7,3.7,0,0,1,226.64,305.44Z" style="fill:#b0b0b0"></path><path d="M208.43,297.76a3.7,3.7,0,1,1-3.7-3.7A3.7,3.7,0,0,1,208.43,297.76Z" style="fill:#b0b0b0"></path><path d="M183.68,292.07a3.7,3.7,0,1,1-3.7-3.7A3.7,3.7,0,0,1,183.68,292.07Z" style="fill:#d1d1d1"></path><path d="M188.8,282.11a3.7,3.7,0,1,1-3.7-3.7A3.7,3.7,0,0,1,188.8,282.11Z" style="fill:#d1d1d1"></path><path d="M196.48,292.07a3.7,3.7,0,1,1-3.7-3.7A3.7,3.7,0,0,1,196.48,292.07Z" style="fill:#b0b0b0"></path><path d="M178.27,284.39a3.7,3.7,0,1,1-3.7-3.7A3.7,3.7,0,0,1,178.27,284.39Z" style="fill:#b0b0b0"></path><path d="M183.68,280.69A3.7,3.7,0,1,1,180,277,3.7,3.7,0,0,1,183.68,280.69Z" style="fill:#d1d1d1"></path><path d="M188.8,270.73a3.7,3.7,0,1,1-3.7-3.7A3.7,3.7,0,0,1,188.8,270.73Z" style="fill:#d1d1d1"></path><path d="M196.48,280.69a3.7,3.7,0,1,1-3.7-3.7A3.7,3.7,0,0,1,196.48,280.69Z" style="fill:#b0b0b0"></path><path d="M178.27,273a3.7,3.7,0,1,1-3.7-3.7A3.69,3.69,0,0,1,178.27,273Z" style="fill:#b0b0b0"></path><path d="M158.64,292.92a3.7,3.7,0,1,1-3.7-3.7A3.69,3.69,0,0,1,158.64,292.92Z" style="fill:#d1d1d1"></path><path d="M163.76,283a3.7,3.7,0,1,1-3.7-3.69A3.69,3.69,0,0,1,163.76,283Z" style="fill:#d1d1d1"></path><path d="M171.45,292.92a3.7,3.7,0,1,1-3.7-3.7A3.7,3.7,0,0,1,171.45,292.92Z" style="fill:#b0b0b0"></path><path d="M153.24,285.24a3.7,3.7,0,1,1-3.7-3.7A3.7,3.7,0,0,1,153.24,285.24Z" style="fill:#b0b0b0"></path><path d="M353.26,273a3.7,3.7,0,1,1-3.7-3.7A3.7,3.7,0,0,1,353.26,273Z" style="fill:#d1d1d1"></path><path d="M358.38,263.05a3.7,3.7,0,1,1-3.7-3.7A3.7,3.7,0,0,1,358.38,263.05Z" style="fill:#d1d1d1"></path><path d="M366.06,273a3.7,3.7,0,1,1-3.7-3.7A3.69,3.69,0,0,1,366.06,273Z" style="fill:#b0b0b0"></path><path d="M347.85,265.32a3.7,3.7,0,1,1-3.7-3.7A3.69,3.69,0,0,1,347.85,265.32Z" style="fill:#b0b0b0"></path><path d="M138.72,297.19a3.7,3.7,0,1,1-3.69-3.7A3.7,3.7,0,0,1,138.72,297.19Z" style="fill:#d1d1d1"></path><path d="M143.85,287.23a3.7,3.7,0,1,1-3.7-3.7A3.7,3.7,0,0,1,143.85,287.23Z" style="fill:#d1d1d1"></path><path d="M151.53,297.19a3.7,3.7,0,1,1-3.7-3.7A3.7,3.7,0,0,1,151.53,297.19Z" style="fill:#b0b0b0"></path><path d="M133.32,289.51a3.7,3.7,0,1,1-3.7-3.7A3.7,3.7,0,0,1,133.32,289.51Z" style="fill:#b0b0b0"></path><path d="M147.26,281.26a3.7,3.7,0,1,1-3.7-3.7A3.7,3.7,0,0,1,147.26,281.26Z" style="fill:#d1d1d1"></path><path d="M152.38,271.3a3.7,3.7,0,1,1-3.7-3.7A3.7,3.7,0,0,1,152.38,271.3Z" style="fill:#d1d1d1"></path><path d="M160.06,281.26a3.7,3.7,0,1,1-3.69-3.7A3.7,3.7,0,0,1,160.06,281.26Z" style="fill:#b0b0b0"></path><path d="M141.85,273.57a3.7,3.7,0,1,1-3.69-3.69A3.69,3.69,0,0,1,141.85,273.57Z" style="fill:#b0b0b0"></path><path d="M121.94,274.43a3.7,3.7,0,1,1-3.7-3.7A3.7,3.7,0,0,1,121.94,274.43Z" style="fill:#d1d1d1"></path><path d="M127.06,264.47a3.7,3.7,0,1,1-3.7-3.7A3.7,3.7,0,0,1,127.06,264.47Z" style="fill:#d1d1d1"></path><path d="M134.74,274.43a3.7,3.7,0,1,1-3.7-3.7A3.7,3.7,0,0,1,134.74,274.43Z" style="fill:#b0b0b0"></path><path d="M116.53,266.75a3.7,3.7,0,1,1-3.7-3.7A3.7,3.7,0,0,1,116.53,266.75Z" style="fill:#b0b0b0"></path><path d="M170.88,280.12a3.7,3.7,0,1,1-3.7-3.7A3.7,3.7,0,0,1,170.88,280.12Z" style="fill:#d1d1d1"></path><path d="M176,270.16a3.7,3.7,0,1,1-3.7-3.7A3.7,3.7,0,0,1,176,270.16Z" style="fill:#d1d1d1"></path><path d="M183.68,280.12a3.7,3.7,0,1,1-3.7-3.7A3.7,3.7,0,0,1,183.68,280.12Z" style="fill:#b0b0b0"></path><path d="M165.47,272.44a3.7,3.7,0,1,1-3.7-3.7A3.7,3.7,0,0,1,165.47,272.44Z" style="fill:#b0b0b0"></path><path d="M118.24,300.6a3.7,3.7,0,1,1-3.7-3.69A3.7,3.7,0,0,1,118.24,300.6Z" style="fill:#d1d1d1"></path><path d="M123.36,290.65a3.7,3.7,0,1,1-3.7-3.7A3.7,3.7,0,0,1,123.36,290.65Z" style="fill:#d1d1d1"></path><path d="M131,300.6a3.7,3.7,0,1,1-3.7-3.69A3.69,3.69,0,0,1,131,300.6Z" style="fill:#b0b0b0"></path><path d="M112.83,292.92a3.7,3.7,0,1,1-3.7-3.7A3.69,3.69,0,0,1,112.83,292.92Z" style="fill:#b0b0b0"></path><path d="M98.32,301.74a3.7,3.7,0,1,1-3.7-3.7A3.69,3.69,0,0,1,98.32,301.74Z" style="fill:#d1d1d1"></path><path d="M103.44,291.78a3.7,3.7,0,1,1-3.7-3.69A3.69,3.69,0,0,1,103.44,291.78Z" style="fill:#d1d1d1"></path><path d="M111.13,301.74a3.7,3.7,0,1,1-3.7-3.7A3.7,3.7,0,0,1,111.13,301.74Z" style="fill:#b0b0b0"></path><path d="M92.92,294.06a3.7,3.7,0,1,1-3.7-3.7A3.7,3.7,0,0,1,92.92,294.06Z" style="fill:#b0b0b0"></path><path d="M105.15,283a3.72,3.72,0,1,1-3.7-3.33A3.53,3.53,0,0,1,105.15,283Z" style="fill:#d1d1d1"></path><path d="M110.27,274.06a3.72,3.72,0,1,1-3.7-3.33A3.53,3.53,0,0,1,110.27,274.06Z" style="fill:#d1d1d1"></path><path d="M118,283a3.72,3.72,0,1,1-3.69-3.33A3.52,3.52,0,0,1,118,283Z" style="fill:#b0b0b0"></path><path d="M99.74,276.12a3.71,3.71,0,1,1-3.69-3.34A3.52,3.52,0,0,1,99.74,276.12Z" style="fill:#b0b0b0"></path><path d="M386.26,273a3.7,3.7,0,1,1-3.7-3.7A3.69,3.69,0,0,1,386.26,273Z" style="fill:#d1d1d1"></path><path d="M391.38,263.05a3.7,3.7,0,1,1-3.69-3.7A3.7,3.7,0,0,1,391.38,263.05Z" style="fill:#d1d1d1"></path><path d="M399.07,273a3.7,3.7,0,1,1-3.7-3.7A3.7,3.7,0,0,1,399.07,273Z" style="fill:#b0b0b0"></path><path d="M380.86,265.32a3.7,3.7,0,1,1-3.7-3.7A3.7,3.7,0,0,1,380.86,265.32Z" style="fill:#b0b0b0"></path><path d="M193.92,302.31a3.7,3.7,0,1,1-3.7-3.7A3.7,3.7,0,0,1,193.92,302.31Z" style="fill:#d1d1d1"></path><path d="M199,292.35a3.7,3.7,0,1,1-3.69-3.7A3.69,3.69,0,0,1,199,292.35Z" style="fill:#d1d1d1"></path><path d="M206.73,302.31a3.7,3.7,0,1,1-3.7-3.7A3.7,3.7,0,0,1,206.73,302.31Z" style="fill:#b0b0b0"></path><path d="M188.52,294.63a3.7,3.7,0,1,1-3.7-3.7A3.7,3.7,0,0,1,188.52,294.63Z" style="fill:#b0b0b0"></path><path d="M197.05,285.81a3.7,3.7,0,1,1-3.7-3.7A3.7,3.7,0,0,1,197.05,285.81Z" style="fill:#d1d1d1"></path><path d="M202.17,275.85a3.7,3.7,0,1,1-3.69-3.7A3.7,3.7,0,0,1,202.17,275.85Z" style="fill:#d1d1d1"></path><path d="M209.86,285.81a3.7,3.7,0,1,1-3.7-3.7A3.7,3.7,0,0,1,209.86,285.81Z" style="fill:#b0b0b0"></path><path d="M191.65,278.13a3.7,3.7,0,1,1-3.7-3.7A3.7,3.7,0,0,1,191.65,278.13Z" style="fill:#b0b0b0"></path></g><g id="freepik--Floor--inject-2"><rect x="75.34" y="343.87" width="323.59" height="40.97" style="fill:#7E57C2"></rect><line x1="71.18" y1="384.68" x2="403.09" y2="384.68" style="fill:none;stroke:#263238;stroke-linecap:round;stroke-linejoin:round"></line></g><g id="freepik--Goal--inject-2"><path d="M143.76,379.25c-.52-26.86-.52-54,0-80.92" style="fill:none;stroke:#ccc;stroke-miterlimit:10"></path><path d="M150.91,379.25c-.27-26.86-.27-54,0-80.92" style="fill:none;stroke:#ccc;stroke-miterlimit:10"></path><path d="M158.06,379.25c0-26.86,0-54,0-80.92" style="fill:none;stroke:#ccc;stroke-miterlimit:10"></path><path d="M165.22,379.25c.21-26.86.21-54,0-80.92" style="fill:none;stroke:#ccc;stroke-miterlimit:10"></path><path d="M172.37,379.25c.46-26.86.46-54,0-80.92" style="fill:none;stroke:#ccc;stroke-miterlimit:10"></path><path d="M179.52,379.25c-.53-26.86-.53-54,0-80.92" style="fill:none;stroke:#ccc;stroke-miterlimit:10"></path><path d="M186.68,379.25c-.29-26.86-.29-54,0-80.92" style="fill:none;stroke:#ccc;stroke-miterlimit:10"></path><path d="M193.83,379.25c-.05-26.86-.05-54,0-80.92" style="fill:none;stroke:#ccc;stroke-miterlimit:10"></path><path d="M201,379.25c.19-26.86.19-54,0-80.92" style="fill:none;stroke:#ccc;stroke-miterlimit:10"></path><path d="M208.14,379.25c.43-26.86.43-54,0-80.92" style="fill:none;stroke:#ccc;stroke-miterlimit:10"></path><path d="M215.29,379.25c-.55-26.86-.55-54,0-80.92" style="fill:none;stroke:#ccc;stroke-miterlimit:10"></path><path d="M222.45,379.25c-.32-26.86-.32-54,0-80.92" style="fill:none;stroke:#ccc;stroke-miterlimit:10"></path><path d="M229.6,379.25c-.07-26.86-.07-54,0-80.92" style="fill:none;stroke:#ccc;stroke-miterlimit:10"></path><path d="M236.75,379.25c.18-26.86.18-54,0-80.92" style="fill:none;stroke:#ccc;stroke-miterlimit:10"></path><path d="M243.91,379.25c.41-26.86.41-54,0-80.92" style="fill:none;stroke:#ccc;stroke-miterlimit:10"></path><path d="M251.06,379.25c-.57-26.86-.57-54,0-80.92" style="fill:none;stroke:#ccc;stroke-miterlimit:10"></path><path d="M258.22,379.25c-.34-26.86-.34-54,0-80.92" style="fill:none;stroke:#ccc;stroke-miterlimit:10"></path><path d="M265.37,379.25c-.09-26.86-.09-54,0-80.92" style="fill:none;stroke:#ccc;stroke-miterlimit:10"></path><path d="M272.52,379.25c.15-26.86.15-54,0-80.92" style="fill:none;stroke:#ccc;stroke-miterlimit:10"></path><path d="M279.68,379.25c.39-26.86.39-54,0-80.92" style="fill:none;stroke:#ccc;stroke-miterlimit:10"></path><path d="M286.83,379.25c-.6-26.86-.6-54,0-80.92" style="fill:none;stroke:#ccc;stroke-miterlimit:10"></path><path d="M294,379.25c-.35-26.86-.35-54,0-80.92" style="fill:none;stroke:#ccc;stroke-miterlimit:10"></path><path d="M301.14,379.25c-.11-26.86-.11-54,0-80.92" style="fill:none;stroke:#ccc;stroke-miterlimit:10"></path><path d="M308.29,379.25c.13-26.86.13-54,0-80.92" style="fill:none;stroke:#ccc;stroke-miterlimit:10"></path><path d="M315.44,379.25c.38-26.86.38-54,0-80.92" style="fill:none;stroke:#ccc;stroke-miterlimit:10"></path><path d="M322.6,379.25c-.62-26.86-.62-54,0-80.92" style="fill:none;stroke:#ccc;stroke-miterlimit:10"></path><path d="M329.75,379.25c-.37-26.86-.37-54,0-80.92" style="fill:none;stroke:#ccc;stroke-miterlimit:10"></path><path d="M143.76,384.3c-.52-26.86-.52-60.66,0-87.6" style="fill:none;stroke:#ccc;stroke-miterlimit:10"></path><path d="M150.91,384.3c-.27-26.86-.27-60.66,0-87.6" style="fill:none;stroke:#ccc;stroke-miterlimit:10"></path><path d="M158.06,384.3c0-26.86,0-60.66,0-87.6" style="fill:none;stroke:#ccc;stroke-miterlimit:10"></path><path d="M165.22,384.3c.21-26.86.21-60.66,0-87.6" style="fill:none;stroke:#ccc;stroke-miterlimit:10"></path><path d="M172.37,384.3c.46-26.86.46-60.66,0-87.6" style="fill:none;stroke:#ccc;stroke-miterlimit:10"></path><path d="M179.52,384.3c-.53-26.86-.53-60.66,0-87.6" style="fill:none;stroke:#ccc;stroke-miterlimit:10"></path><path d="M186.68,384.3c-.29-26.86-.29-60.66,0-87.6" style="fill:none;stroke:#ccc;stroke-miterlimit:10"></path><path d="M193.83,384.3c-.05-26.86-.05-60.66,0-87.6" style="fill:none;stroke:#ccc;stroke-miterlimit:10"></path><path d="M201,384.3c.19-26.86.19-60.66,0-87.6" style="fill:none;stroke:#ccc;stroke-miterlimit:10"></path><path d="M208.14,384.3c.43-26.86.43-60.66,0-87.6" style="fill:none;stroke:#ccc;stroke-miterlimit:10"></path><path d="M215.29,384.3c-.55-26.86-.55-60.66,0-87.6" style="fill:none;stroke:#ccc;stroke-miterlimit:10"></path><path d="M222.45,384.3c-.32-26.86-.32-60.66,0-87.6" style="fill:none;stroke:#ccc;stroke-miterlimit:10"></path><path d="M229.6,384.3c-.07-26.86-.07-60.66,0-87.6" style="fill:none;stroke:#ccc;stroke-miterlimit:10"></path><path d="M236.75,384.3c.18-26.86.18-60.66,0-87.6" style="fill:none;stroke:#ccc;stroke-miterlimit:10"></path><path d="M243.91,384.3c.41-26.86.41-60.66,0-87.6" style="fill:none;stroke:#ccc;stroke-miterlimit:10"></path><path d="M251.06,384.3c-.57-26.86-.57-60.66,0-87.6" style="fill:none;stroke:#ccc;stroke-miterlimit:10"></path><path d="M258.22,384.3c-.34-26.86-.34-60.66,0-87.6" style="fill:none;stroke:#ccc;stroke-miterlimit:10"></path><path d="M265.37,384.3c-.09-26.86-.09-60.66,0-87.6" style="fill:none;stroke:#ccc;stroke-miterlimit:10"></path><path d="M272.52,384.3c.15-26.86.15-60.66,0-87.6" style="fill:none;stroke:#ccc;stroke-miterlimit:10"></path><path d="M279.68,384.3c.39-26.86.39-60.66,0-87.6" style="fill:none;stroke:#ccc;stroke-miterlimit:10"></path><path d="M286.83,384.3c-.6-26.86-.6-60.66,0-87.6" style="fill:none;stroke:#ccc;stroke-miterlimit:10"></path><path d="M294,384.3c-.35-26.86-.35-60.66,0-87.6" style="fill:none;stroke:#ccc;stroke-miterlimit:10"></path><path d="M301.14,384.3c-.11-26.86-.11-60.66,0-87.6" style="fill:none;stroke:#ccc;stroke-miterlimit:10"></path><path d="M308.29,384.3c.13-26.86.13-60.66,0-87.6" style="fill:none;stroke:#ccc;stroke-miterlimit:10"></path><path d="M315.44,384.3c.38-26.86.38-60.66,0-87.6" style="fill:none;stroke:#ccc;stroke-miterlimit:10"></path><path d="M322.6,384.3c-.62-26.86-.62-60.66,0-87.6" style="fill:none;stroke:#ccc;stroke-miterlimit:10"></path><path d="M329.75,384.3c-.37-26.86-.37-60.66,0-87.6" style="fill:none;stroke:#ccc;stroke-miterlimit:10"></path><line x1="137.86" y1="304.3" x2="337.62" y2="304.3" style="fill:none;stroke:#ccc;stroke-miterlimit:10"></line><line x1="137.86" y1="310.67" x2="337.62" y2="310.67" style="fill:none;stroke:#ccc;stroke-miterlimit:10"></line><line x1="137.86" y1="317.03" x2="337.62" y2="317.03" style="fill:none;stroke:#ccc;stroke-miterlimit:10"></line><line x1="137.86" y1="323.4" x2="337.62" y2="323.4" style="fill:none;stroke:#ccc;stroke-miterlimit:10"></line><line x1="137.86" y1="329.77" x2="337.62" y2="329.77" style="fill:none;stroke:#ccc;stroke-miterlimit:10"></line><line x1="137.86" y1="336.13" x2="337.62" y2="336.13" style="fill:none;stroke:#ccc;stroke-miterlimit:10"></line><line x1="137.86" y1="342.5" x2="337.62" y2="342.5" style="fill:none;stroke:#ccc;stroke-miterlimit:10"></line><line x1="137.86" y1="348.87" x2="337.62" y2="348.87" style="fill:none;stroke:#ccc;stroke-miterlimit:10"></line><line x1="137.86" y1="355.23" x2="337.62" y2="355.23" style="fill:none;stroke:#ccc;stroke-miterlimit:10"></line><line x1="137.86" y1="361.6" x2="337.62" y2="361.6" style="fill:none;stroke:#ccc;stroke-miterlimit:10"></line><line x1="137.86" y1="367.97" x2="337.62" y2="367.97" style="fill:none;stroke:#ccc;stroke-miterlimit:10"></line><line x1="137.86" y1="374.33" x2="337.62" y2="374.33" style="fill:none;stroke:#ccc;stroke-miterlimit:10"></line><line x1="137.86" y1="381.02" x2="337.62" y2="381.02" style="fill:none;stroke:#ccc;stroke-miterlimit:10"></line><path d="M336.42,296.93H139.85a4.2,4.2,0,0,0-4.19,4.19v83.56h2V303.21l8.82,5.84a5.34,5.34,0,0,1,2.38,4.45v70.63h2V313.5a7.32,7.32,0,0,0-3.28-6.12l-9.89-6.55a2.19,2.19,0,0,1,2.16-1.9H336.42a2.18,2.18,0,0,1,2.12,1.69l-10.2,6.76a7.32,7.32,0,0,0-3.28,6.12v70.63h2V313.5a5.32,5.32,0,0,1,2.39-4.45l9.16-6.07v81.7h2V301.12A4.2,4.2,0,0,0,336.42,296.93Z" style="fill:#fff;stroke:#263238;stroke-miterlimit:10"></path></g><g id="freepik--character-2--inject-2"><path d="M195.88,362.31a25,25,0,0,1,5.59-.87c2.48,0,4.47,0,5.21-.38a9.14,9.14,0,0,1,4.6-1.36c2.35,0,14.15,2,14.15,2a35.33,35.33,0,0,0,4.22-.62c1.49-.37,3.48.87,4.1,1.49s1,1.49-1.24,1.62-5.22-.75-5.71-.75S216,364.79,212,365.29a78.4,78.4,0,0,0-11.8,3,16.45,16.45,0,0,0-2,.74Z" style="fill:#fff;stroke:#263238;stroke-miterlimit:10"></path><path d="M196.62,373.85s.5-2.85,1.25-3,1.61.5,2.6.5,2.24-.5,3.23.25,1.37,1.36,1.37,1.74-5.34.74-6.09.74S196.25,374.23,196.62,373.85Z" style="fill:#fff;stroke:#263238;stroke-miterlimit:10"></path><path d="M191.78,384.53s5.09,1.86,6.09.87.37-3.35.37-3.73,1.12-7.94.74-8.44-1.49-.74-1.61-.37-2.48,5-2.48,5l-1.49-.38Z" style="fill:#fff;stroke:#263238;stroke-miterlimit:10"></path><path d="M194.89,377.83a21.1,21.1,0,0,1,3,2.23" style="fill:#fff;stroke:#263238;stroke-miterlimit:10"></path><path d="M164.09,352.37A52.17,52.17,0,0,0,158,359a18.65,18.65,0,0,0-3,7.95s-4.35,4.84-4.84,6-3.23,9.19-3.23,9.19l3.1.74s5.22-9.81,7-12,6.2-7.08,6.2-7.08,6.71,6.09,9.32,8.94,3.85,5,8.69,7.7a62.17,62.17,0,0,0,11.3,4.59,11.36,11.36,0,0,0,1.11-3.72c.25-2.11.5-3.48.5-3.48l-2.85-4.34.24-1.49,7.58-1a8.22,8.22,0,0,0,.12-4.47,19.64,19.64,0,0,0-1.86-4.59s-7.33,1.12-9.31,1.36-4.22.63-4.22.63a18.84,18.84,0,0,1-2.24-1.12c-.5-.37-2.11-4.35-2.61-6.46s-1-4-1-4,12-5.84,12.42-7.7-4.47-2.86-6.21-2.23-6.21,3.6-7.7,4.22-4.72,1.49-6.33,2.48S165.46,351.13,164.09,352.37Z" style="fill:#263238;stroke:#263238;stroke-miterlimit:10"></path><path d="M166.7,342.69a4.94,4.94,0,0,0-4.34-4.22c-3.85-.38-6.46,1.61-6.34,5.21a7.92,7.92,0,0,0,2.61,5.59s-.74.62.37,1.24a3.82,3.82,0,0,0,2.36.37l2.36,3.23s1.37,2.73,4.1,2.48,2.36-3.1,1.74-4.09a7.92,7.92,0,0,0-1-1.37,9.92,9.92,0,0,0,0-4.22A11.22,11.22,0,0,0,166.7,342.69Z" style="fill:#fff;stroke:#263238;stroke-miterlimit:10"></path><path d="M168.56,351.13s-4.22,2.24-6.45-.37" style="fill:#fff;stroke:#263238;stroke-miterlimit:10"></path><path d="M163.31,338.65a5.52,5.52,0,0,0-.95-.18c-3.85-.38-6.46,1.61-6.34,5.21a7.92,7.92,0,0,0,2.61,5.59s1.37,1,1.49-.13-1.24-1-1.24-2.23,1.61-2.61.62-3.1-2.11.12-1.37-1.37S159.69,339.23,163.31,338.65Z" style="fill:#263238;stroke:#263238;stroke-miterlimit:10"></path><path d="M147.46,382.05s-3.6,1.36-4.47,1.86-2.24,2.86-1.74,3a8.62,8.62,0,0,0,3.1.12c.62-.24,2.49-1.36,2.49-1.36s-1.62,2.23,0,1.74,3.22-4.6,3.22-4.6S149.57,381.92,147.46,382.05Z" style="fill:#fff;stroke:#263238;stroke-miterlimit:10"></path><path d="M180.23,342.32l.38,1.86s4,1.61,6.21,1.61,4.47-1.74,4.22-2.73-.75-2-3.23-2A46.06,46.06,0,0,0,180.23,342.32Z" style="fill:#fff;stroke:#263238;stroke-miterlimit:10"></path><path d="M180.23,342.32a32.14,32.14,0,0,0-5.71-1.12,3.84,3.84,0,0,0-3.35,2.23c-.5,1,.13.38,1.49,1a5.67,5.67,0,0,0,3.48-.13,8.68,8.68,0,0,0,4.47-.12Z" style="fill:#fff;stroke:#263238;stroke-miterlimit:10"></path><path d="M225.67,363.54l1.13-.12c.49,0,3.47.87,5.71.75s1.86-1,1.24-1.62-2.61-1.86-4.1-1.49a35.33,35.33,0,0,1-4.22.62S227.11,362.7,225.67,363.54Z" style="fill:#fff;stroke:#263238;stroke-miterlimit:10"></path><path d="M197.37,361.81s-7.33,1.12-9.31,1.36-4.22.63-4.22.63,1.61,5.21-2,7.45a19.45,19.45,0,0,1-8.07,2.48l-.13.14a24.35,24.35,0,0,0,7.58,6.44,62.17,62.17,0,0,0,11.3,4.59,11.36,11.36,0,0,0,1.11-3.72c.25-2.11.5-3.48.5-3.48l-2.85-4.34.24-1.49,7.58-1a8.22,8.22,0,0,0,.12-4.47A19.64,19.64,0,0,0,197.37,361.81Z" style="fill:#7E57C2;stroke:#263238;stroke-miterlimit:10"></path></g><g id="freepik--Ball--inject-2"><line x1="305.39" y1="292.23" x2="310.38" y2="294.56" style="fill:none;stroke:#263238;stroke-linecap:round;stroke-miterlimit:10"></line><line x1="309.38" y1="286.23" x2="312.05" y2="291.56" style="fill:none;stroke:#263238;stroke-linecap:round;stroke-miterlimit:10"></line><line x1="325.04" y1="289.57" x2="319.38" y2="294.56" style="fill:none;stroke:#263238;stroke-linecap:round;stroke-miterlimit:10"></line><line x1="321.71" y1="295.23" x2="326.04" y2="294.56" style="fill:none;stroke:#263238;stroke-linecap:round;stroke-miterlimit:10"></line><path d="M276.73,230.25s.27-.24.78-.62" style="fill:none;stroke:#263238;stroke-miterlimit:10"></path><path d="M279.18,228.5a23.52,23.52,0,0,1,21.21-1.91c12.2,4.76,14.57,55.8,14.93,66.63" style="fill:none;stroke:#263238;stroke-miterlimit:10;stroke-dasharray:2.0222699642181396,2.0222699642181396"></path><path d="M315.35,294.23c0,.65,0,1,0,1l.45-.89" style="fill:none;stroke:#263238;stroke-miterlimit:10"></path><line x1="316.73" y1="292.57" x2="346.8" y2="233.36" style="fill:none;stroke:#263238;stroke-miterlimit:10;stroke-dasharray:1.98225998878479,1.98225998878479"></line><line x1="347.25" y1="232.48" x2="347.7" y2="231.59" style="fill:none;stroke:#263238;stroke-miterlimit:10"></line><path d="M343.86,221.37a8.74,8.74,0,1,0,8.75-8.73A8.73,8.73,0,0,0,343.86,221.37Z" style="fill:#fff"></path><path d="M343.86,221.37a8.74,8.74,0,1,1,8.7,8.74A8.74,8.74,0,0,1,343.86,221.37Zm8.66-2-1.49,0a.26.26,0,0,0-.22.1,16.63,16.63,0,0,0-1.81,3.18.25.25,0,0,0,0,.24,18.28,18.28,0,0,0,1.61,2.73.14.14,0,0,0,.11.05,35.84,35.84,0,0,0,3.88-.13.15.15,0,0,0,.1-.06,29.17,29.17,0,0,0,1.48-2.61.3.3,0,0,0,0-.21,16.33,16.33,0,0,0-1.77-3.26c0-.05-.07-.05-.12-.05Zm-5.11,3.24v0l1.18,0a.15.15,0,0,0,.13-.1,16.52,16.52,0,0,1,1.89-3.29s0-.08,0-.12c-.13-.35-.28-.69-.39-1-.17-.51-.32-1-.48-1.55,0-.06-.05-.09-.11-.09h-.32a10,10,0,0,0-2.56.22.23.23,0,0,0-.12.08c-.15.19-.29.39-.43.59a7.84,7.84,0,0,0-1,2.16.51.51,0,0,0,0,.21c.07.36.12.73.21,1.09a5.2,5.2,0,0,0,.82,1.79.17.17,0,0,0,.16.09Zm10.64.06v0H359a.14.14,0,0,0,.11-.05c.14-.18.29-.35.41-.54a4.35,4.35,0,0,0,.62-2.08,1.63,1.63,0,0,0-.15-.84c-.09-.2-.17-.4-.26-.59a7.06,7.06,0,0,0-1.11-1.69.42.42,0,0,0-.18-.11,5,5,0,0,0-1.53-.23c-.4,0-.81.05-1.21.07-.05,0-.1,0-.11.08a15.52,15.52,0,0,1-.88,2.42.14.14,0,0,0,0,.15,16.41,16.41,0,0,1,1.77,3.27.13.13,0,0,0,.09.07Zm-1.92,4.81,0,0a5.56,5.56,0,0,1-1.42-1.56s-.07,0-.12,0l-.55,0c-1.1.07-2.21.09-3.31.07a.16.16,0,0,0-.14.07,8.64,8.64,0,0,1-1.47,1.49.07.07,0,0,0,0,.11c.08.15.15.31.24.46a6.61,6.61,0,0,0,1.25,1.44.61.61,0,0,0,.21.11,8.93,8.93,0,0,0,3.05.12,1.62,1.62,0,0,0,1-.49l.08-.07a5.41,5.41,0,0,0,.81-1C355.86,227.91,356,227.67,356.13,227.45ZM352.71,213s0,0,0,.06c0,.47,0,.95,0,1.42,0,.06,0,.08.08.09a6.58,6.58,0,0,1,2.63,1.64.21.21,0,0,0,.21.07,6.82,6.82,0,0,1,2.7.1l.11,0c0-.36-.05-.7-.08-1a.25.25,0,0,0-.08-.16,8.26,8.26,0,0,0-5.13-2.2A3.38,3.38,0,0,0,352.71,213Zm-5.85,3.25h0a11.81,11.81,0,0,1,2.85-.16.14.14,0,0,0,.11,0l.58-.4a11,11,0,0,1,1.93-1.07.11.11,0,0,0,.05-.09c0-.48,0-1,0-1.43,0,0,0,0,0-.07h-.1c-.24,0-.49,0-.73.06a8.43,8.43,0,0,0-4.39,1.92.67.67,0,0,0-.3.57C346.87,215.75,346.86,216,346.86,216.22Zm-.81,9.38a.13.13,0,0,1,0-.06,8.8,8.8,0,0,1-.06-2.71.19.19,0,0,0,0-.1,6,6,0,0,1-1.05-2.6,4.51,4.51,0,0,1-.08-.53l-.39.05c-.07,0-.09,0-.1.11a8.45,8.45,0,0,0,.06,3.54,8.33,8.33,0,0,0,.92,2.3s.05.08.08.07Zm13.15,0h.57a.2.2,0,0,0,.2-.11,8.47,8.47,0,0,0,1-4.59c0-.36-.08-.71-.13-1.06,0,0,0-.09-.05-.1a3.15,3.15,0,0,0-.36-.09v.06a4.5,4.5,0,0,1-1.14,3.11.14.14,0,0,0,0,.09l0,.28a7.52,7.52,0,0,1-.05,2C359.25,225.3,359.23,225.43,359.2,225.57Zm-4.09,3.85a8.51,8.51,0,0,0,4.61-3.54h-.48a.44.44,0,0,0-.4.15.9.9,0,0,1-.1.09,11.76,11.76,0,0,1-2.2,1.34.29.29,0,0,0-.14.13,9,9,0,0,1-.85,1.32ZM345.54,226a8.49,8.49,0,0,0,4.43,3.41l-.5-.57a4.05,4.05,0,0,1-.74-1.25.14.14,0,0,0-.07-.06,9.61,9.61,0,0,1-2.22-1.44.46.46,0,0,0-.45-.15A3.06,3.06,0,0,1,345.54,226Z" style="fill:#263238;stroke:#263238;stroke-miterlimit:10;stroke-width:0.75px"></path><path d="M352.52,219.34l1.78-.05c.05,0,.09,0,.12.05a16.33,16.33,0,0,1,1.77,3.26.3.3,0,0,1,0,.21,29.17,29.17,0,0,1-1.48,2.61.15.15,0,0,1-.1.06,35.84,35.84,0,0,1-3.88.13.14.14,0,0,1-.11-.05,18.28,18.28,0,0,1-1.61-2.73.25.25,0,0,1,0-.24,16.63,16.63,0,0,1,1.81-3.18.26.26,0,0,1,.22-.1Z" style="fill:#fff"></path><path d="M347.41,222.58h-1.08a.17.17,0,0,1-.16-.09,5.2,5.2,0,0,1-.82-1.79c-.09-.36-.14-.73-.21-1.09a.51.51,0,0,1,0-.21,7.84,7.84,0,0,1,1-2.16c.14-.2.28-.4.43-.59a.23.23,0,0,1,.12-.08,10,10,0,0,1,2.56-.22h.32c.06,0,.09,0,.11.09.16.52.31,1,.48,1.55.11.35.26.69.39,1,0,0,0,.07,0,.12a16.52,16.52,0,0,0-1.89,3.29.15.15,0,0,1-.13.1l-1.18,0Z" style="fill:#fff"></path><path d="M358.05,222.64l-1.48-.1a.13.13,0,0,1-.09-.07,16.41,16.41,0,0,0-1.77-3.27.14.14,0,0,1,0-.15,15.52,15.52,0,0,0,.88-2.42c0-.07.06-.07.11-.08.4,0,.81-.06,1.21-.07a5,5,0,0,1,1.53.23.42.42,0,0,1,.18.11,7.06,7.06,0,0,1,1.11,1.69c.09.19.17.39.26.59a1.63,1.63,0,0,1,.15.84,4.35,4.35,0,0,1-.62,2.08c-.12.19-.27.36-.41.54a.14.14,0,0,1-.11.05h-.94Z" style="fill:#fff"></path><path d="M356.13,227.45c-.14.22-.27.46-.42.68a5.41,5.41,0,0,1-.81,1l-.08.07a1.62,1.62,0,0,1-1,.49,8.93,8.93,0,0,1-3.05-.12.61.61,0,0,1-.21-.11,6.61,6.61,0,0,1-1.25-1.44c-.09-.15-.16-.31-.24-.46a.07.07,0,0,1,0-.11,8.64,8.64,0,0,0,1.47-1.49.16.16,0,0,1,.14-.07c1.1,0,2.21,0,3.31-.07l.55,0c.05,0,.09,0,.12,0a5.56,5.56,0,0,0,1.42,1.56Z" style="fill:#fff"></path><path d="M352.71,213a3.38,3.38,0,0,1,.45,0,8.26,8.26,0,0,1,5.13,2.2.25.25,0,0,1,.08.16c0,.34.06.68.08,1l-.11,0a6.82,6.82,0,0,0-2.7-.1.21.21,0,0,1-.21-.07,6.58,6.58,0,0,0-2.63-1.64c-.05,0-.07,0-.08-.09,0-.47,0-.95,0-1.42C352.7,213,352.71,213,352.71,213Z" style="fill:#fff"></path><path d="M346.86,216.22c0-.24,0-.47,0-.71a.67.67,0,0,1,.3-.57,8.43,8.43,0,0,1,4.39-1.92c.24,0,.49,0,.73-.06h.1s0,0,0,.07c0,.48,0,.95,0,1.43a.11.11,0,0,1-.05.09,11,11,0,0,0-1.93,1.07l-.58.4a.14.14,0,0,1-.11,0,11.81,11.81,0,0,0-2.85.16Z" style="fill:#fff"></path><path d="M346.05,225.6l-.66.07s-.06,0-.08-.07a8.33,8.33,0,0,1-.92-2.3,8.45,8.45,0,0,1-.06-3.54c0-.07,0-.1.1-.11l.39-.05a4.51,4.51,0,0,0,.08.53,6,6,0,0,0,1.05,2.6.19.19,0,0,1,0,.1,8.8,8.8,0,0,0,.06,2.71A.13.13,0,0,0,346.05,225.6Z" style="fill:#fff"></path><path d="M359.2,225.57c0-.14.05-.27.07-.4a7.52,7.52,0,0,0,.05-2l0-.28a.14.14,0,0,1,0-.09,4.5,4.5,0,0,0,1.14-3.11v-.06a3.15,3.15,0,0,1,.36.09s0,.07.05.1c.05.35.11.7.13,1.06a8.47,8.47,0,0,1-1,4.59.2.2,0,0,1-.2.11Z" style="fill:#fff"></path><path d="M355.11,229.42l.44-.51a9,9,0,0,0,.85-1.32.29.29,0,0,1,.14-.13,11.76,11.76,0,0,0,2.2-1.34.9.9,0,0,0,.1-.09.44.44,0,0,1,.4-.15h.48A8.51,8.51,0,0,1,355.11,229.42Z" style="fill:#fff"></path><path d="M345.54,226a3.06,3.06,0,0,0,.45-.06.46.46,0,0,1,.45.15,9.61,9.61,0,0,0,2.22,1.44.14.14,0,0,1,.07.06,4.05,4.05,0,0,0,.74,1.25l.5.57A8.49,8.49,0,0,1,345.54,226Z" style="fill:#fff"></path></g><g id="freepik--character-1--inject-2"><ellipse cx="241.61" cy="435.92" rx="80.27" ry="13.71" style="fill:#263238"></ellipse><polygon points="232.16 162.8 231.22 173.34 249.49 173.34 248.32 162.8 232.16 162.8" style="fill:#fff;stroke:#263238;stroke-miterlimit:10"></polygon><path d="M224.14,145.23s-2.08-2.6-2.86,1,2.86,8.82,4.67,9.6.26-7.27,0-9.34S224.14,145.23,224.14,145.23Z" style="fill:#fff;stroke:#263238;stroke-miterlimit:10"></path><path d="M257.08,145.23s2.08-2.6,2.86,1-2.86,8.82-4.68,9.6-.25-7.27,0-9.34S257.08,145.23,257.08,145.23Z" style="fill:#fff;stroke:#263238;stroke-miterlimit:10"></path><path d="M242.93,124.62a14.18,14.18,0,0,0-11-.23c-6.09,2.34-8,10.77-8.44,17.33s2.58,16.86,4.22,19,4.68,5.39,4.68,5.39h15.46s5.39-5.62,7.5-11,2.58-19,.94-24.13S248.32,122.75,242.93,124.62Z" style="fill:#263238;stroke:#263238;stroke-miterlimit:10"></path><path d="M204.68,327.42s-3.05,13.37-4.22,17.36-5.86,12-6.57,25.32-4,45.5-4,45.5-8,7.27-10.32,9.61-.71,3.29.94,4.46,9.84,5.63,13.6,5.39,6.09-.94,6.33-4.69.23-12.19,1.17-15,13.84-42.21,16.65-53.93,2.81-18.06,2.81-18.06l4.93-12.9Z" style="fill:#fff"></path><g style="clip-path:url(#freepik--clip-path--inject-2)"><path d="M209,332.22s-7.86,15.07-9.48,31.46S190,433.92,190,433.92l4.12,1.14s21.73-74,22.59-82.16,3-22.84,3-22.84" style="opacity:0.30000000000000004"></path></g><path d="M204.68,327.42s-3.05,13.37-4.22,17.36-5.86,12-6.57,25.32-4,45.5-4,45.5-8,7.27-10.32,9.61-.71,3.29.94,4.46,9.84,5.63,13.6,5.39,6.09-.94,6.33-4.69.23-12.19,1.17-15,13.84-42.21,16.65-53.93,2.81-18.06,2.81-18.06l4.93-12.9Z" style="fill:none;stroke:#263238;stroke-miterlimit:10"></path><path d="M219,358.23c-8.07-5.24-17.46-4.5-22.23-3.63a59.76,59.76,0,0,0-2.89,15.5c-.7,13.37-4,45.5-4,45.5s-8,7.27-10.32,9.61-.71,3.29.94,4.46,9.84,5.63,13.6,5.39,6.09-.94,6.33-4.69.23-12.19,1.17-15,13.84-42.21,16.65-53.93C218.55,360.31,218.79,359.25,219,358.23Z" style="fill:#fff"></path><g style="clip-path:url(#freepik--clip-path-2--inject-2)"><path d="M209,332.22s-7.86,15.07-9.48,31.46S190,433.92,190,433.92l4.12,1.14s21.73-74,22.59-82.16,3-22.84,3-22.84" style="opacity:0.30000000000000004"></path></g><path d="M219,358.23c-8.07-5.24-17.46-4.5-22.23-3.63a59.76,59.76,0,0,0-2.89,15.5c-.7,13.37-4,45.5-4,45.5s-8,7.27-10.32,9.61-.71,3.29.94,4.46,9.84,5.63,13.6,5.39,6.09-.94,6.33-4.69.23-12.19,1.17-15,13.84-42.21,16.65-53.93C218.55,360.31,218.79,359.25,219,358.23Z" style="fill:none;stroke:#263238;stroke-miterlimit:10"></path><path d="M200.46,430.37c.21-3.43.23-10.78.95-14.16-1-.43-5.8-2.2-7,.09a54,54,0,0,0-2.58,5.63s-2.61-.18-3.75-4.62c-2.5,2.3-6.82,6.28-8.44,7.9-2.35,2.35-.71,3.29.94,4.46s9.84,5.63,13.6,5.39S200.22,434.12,200.46,430.37Z" style="fill:#7E57C2;stroke:#263238;stroke-miterlimit:10"></path><path d="M200.46,430.37c0-.24,0-.51,0-.78a12.79,12.79,0,0,1-12.24,1.25,69.92,69.92,0,0,1-9.6-4.45c-.8,1.53.53,2.33,1.87,3.28,1.64,1.17,9.84,5.63,13.6,5.39S200.22,434.12,200.46,430.37Z" style="fill:#263238;stroke:#263238;stroke-miterlimit:10"></path><path d="M282.3,327.42s3.05,13.37,4.22,17.36,5.87,12,6.57,25.32,4,45.5,4,45.5,8,7.27,10.32,9.61.7,3.29-.94,4.46-9.85,5.63-13.6,5.39-6.1-.94-6.34-4.69-.23-12.19-1.17-15-13.83-42.21-16.65-53.93-2.81-18.06-2.81-18.06L261,330.47Z" style="fill:#fff"></path><g style="clip-path:url(#freepik--clip-path-3--inject-2)"><path d="M292.86,435.06a11,11,0,0,0,3.81-.69c-1.18-14.13-6.16-71.8-9.93-78.32-4.31-7.44-6.66-14.49-6.66-20.36a45.6,45.6,0,0,0-.48-7.88l-.67.1-12.74,5.15s4.1,8.11,4.1,12,2.74,14.1,7.44,29.76c3.86,12.87,10.89,47.93,13.28,60C291.58,435,292.2,435,292.86,435.06Z" style="opacity:0.30000000000000004"></path></g><path d="M282.3,327.42s3.05,13.37,4.22,17.36,5.87,12,6.57,25.32,4,45.5,4,45.5,8,7.27,10.32,9.61.7,3.29-.94,4.46-9.85,5.63-13.6,5.39-6.1-.94-6.34-4.69-.23-12.19-1.17-15-13.83-42.21-16.65-53.93-2.81-18.06-2.81-18.06L261,330.47Z" style="fill:none;stroke:#263238;stroke-miterlimit:10"></path><path d="M268,358.23c8.06-5.24,17.45-4.5,22.22-3.63a58.93,58.93,0,0,1,2.89,15.5c.7,13.37,4,45.5,4,45.5s8,7.27,10.32,9.61.7,3.29-.94,4.46-9.85,5.63-13.6,5.39-6.1-.94-6.34-4.69-.23-12.19-1.17-15-13.83-42.21-16.65-53.93C268.43,360.31,268.2,359.25,268,358.23Z" style="fill:#fff"></path><g style="clip-path:url(#freepik--clip-path-4--inject-2)"><path d="M292.86,435.06a11,11,0,0,0,3.81-.69c-1.18-14.13-6.16-71.8-9.93-78.32-4.31-7.44-6.66-14.49-6.66-20.36a45.6,45.6,0,0,0-.48-7.88l-.67.1-12.74,5.15s4.1,8.11,4.1,12,2.74,14.1,7.44,29.76c3.86,12.87,10.89,47.93,13.28,60C291.58,435,292.2,435,292.86,435.06Z" style="opacity:0.30000000000000004"></path></g><path d="M268,358.23c8.06-5.24,17.45-4.5,22.22-3.63a58.93,58.93,0,0,1,2.89,15.5c.7,13.37,4,45.5,4,45.5s8,7.27,10.32,9.61.7,3.29-.94,4.46-9.85,5.63-13.6,5.39-6.1-.94-6.34-4.69-.23-12.19-1.17-15-13.83-42.21-16.65-53.93C268.43,360.31,268.2,359.25,268,358.23Z" style="fill:none;stroke:#263238;stroke-miterlimit:10"></path><path d="M286.52,430.37c-.21-3.43-.23-10.78-.95-14.16,1.06-.43,5.8-2.2,7.05.09a54,54,0,0,1,2.58,5.63s2.62-.18,3.75-4.62c2.51,2.3,6.82,6.28,8.45,7.9,2.34,2.35.7,3.29-.94,4.46s-9.85,5.63-13.6,5.39S286.76,434.12,286.52,430.37Z" style="fill:#7E57C2;stroke:#263238;stroke-miterlimit:10"></path><path d="M286.52,430.37c0-.24,0-.51,0-.78a12.79,12.79,0,0,0,12.24,1.25,68.75,68.75,0,0,0,9.6-4.45c.81,1.53-.53,2.33-1.86,3.28-1.64,1.17-9.85,5.63-13.6,5.39S286.76,434.12,286.52,430.37Z" style="fill:#263238;stroke:#263238;stroke-miterlimit:10"></path><path d="M216.79,258.3s-3.7,7.8-4.11,14.38A36.25,36.25,0,0,1,209.4,285L200,329.79a31.82,31.82,0,0,0,12.73,5.76c7.81,1.64,17.67.82,17.67.82l11.51-41.5,4.52.41,11.91,42.32s4.93-.41,17.26-3.29,16.85-6.57,16.85-6.57l-10.69-47.25s-4.1-16.44-8.21-23.43C273.5,257.06,234.87,264.05,216.79,258.3Z" style="fill:#263238;stroke:#263238;stroke-miterlimit:10"></path><path d="M273.84,155.3s6.33-10.54,9.14-14.05,4-5.15,4-5.15-34.43-.24-35.84-.94-1.87-2.34-4-4.45-3.51-2.81-3.28-3.75,3.75,0,3.75,0a21,21,0,0,0-6.09-3.51c-3.05-.94-1.64-2.81,2.11-3s8-.7,11.47,1.41,7,8,7,8a191.26,191.26,0,0,1,23.66-7.49c11.95-2.81,23.66-2.58,24.36-1.64s-10.54,34.66-27.87,51.3Z" style="fill:#fff"></path><g style="clip-path:url(#freepik--clip-path-5--inject-2)"><path d="M282.28,171.94c13-12.44,22.52-34.44,26.22-45.14-.26-1.62-1-2.67-2.57-1.87-4.09,2-26,27-29.72,35Z" style="fill:#ccc;opacity:0.30000000000000004"></path></g><path d="M273.84,155.3s6.33-10.54,9.14-14.05,4-5.15,4-5.15-34.43-.24-35.84-.94-1.87-2.34-4-4.45-3.51-2.81-3.28-3.75,3.75,0,3.75,0a21,21,0,0,0-6.09-3.51c-3.05-.94-1.64-2.81,2.11-3s8-.7,11.47,1.41,7,8,7,8a191.26,191.26,0,0,1,23.66-7.49c11.95-2.81,23.66-2.58,24.36-1.64s-10.54,34.66-27.87,51.3Z" style="fill:none;stroke:#263238;stroke-miterlimit:10"></path><path d="M243.63,120.4s4.47,1.43,5.84,3.91" style="fill:none;stroke:#263238;stroke-linecap:round;stroke-linejoin:round"></path><path d="M250.57,120.73s3.3,1.65,3.58,3.85" style="fill:none;stroke:#263238;stroke-linecap:round;stroke-linejoin:round"></path><line x1="286.96" y1="136.1" x2="295.96" y2="126.23" style="fill:none;stroke:#263238;stroke-linecap:round;stroke-linejoin:round"></line><path d="M204.52,155.3s-6.33-10.54-9.14-14.05-4-5.15-4-5.15,34.44-.24,35.84-.94,1.87-2.34,4-4.45,3.52-2.81,3.28-3.75-3.75,0-3.75,0a21,21,0,0,1,6.09-3.51c3-.94,1.64-2.81-2.1-3s-8-.7-11.48,1.41-7,8-7,8a191.26,191.26,0,0,0-23.66-7.49c-11.94-2.81-23.66-2.58-24.36-1.64s10.54,34.66,27.88,51.3Z" style="fill:#fff"></path><g style="clip-path:url(#freepik--clip-path-6--inject-2)"><path d="M196.09,171.94l4.7-9.29c-5.89-10.26-20.25-34.75-25-38.15-3.19-2.28-5.06-.46-6.11,1.76C173.24,136.73,182.9,159.28,196.09,171.94Z" style="fill:#ccc;opacity:0.30000000000000004"></path></g><path d="M204.52,155.3s-6.33-10.54-9.14-14.05-4-5.15-4-5.15,34.44-.24,35.84-.94,1.87-2.34,4-4.45,3.52-2.81,3.28-3.75-3.75,0-3.75,0a21,21,0,0,1,6.09-3.51c3-.94,1.64-2.81-2.1-3s-8-.7-11.48,1.41-7,8-7,8a191.26,191.26,0,0,0-23.66-7.49c-11.94-2.81-23.66-2.58-24.36-1.64s10.54,34.66,27.88,51.3Z" style="fill:none;stroke:#263238;stroke-linecap:round;stroke-linejoin:round"></path><path d="M234.74,120.4s-4.53.88-6.45,2.81" style="fill:none;stroke:#263238;stroke-linecap:round;stroke-linejoin:round"></path><path d="M228.29,120.73s-3.3.55-4.68,2.48" style="fill:none;stroke:#263238;stroke-linecap:round;stroke-linejoin:round"></path><line x1="191.4" y1="136.1" x2="183.72" y2="126.51" style="fill:none;stroke:#263238;stroke-linecap:round;stroke-linejoin:round"></line><path d="M255.58,171.47l-15.69-.94c-11.71-.7-15.46.23-15.46.23L203.35,153.2l-12.42,18.74,17.57,21.31s3.05,17.1,5.39,26.71,3.28,29.28,2.11,34.19-.24,7.27,1.64,8.2,15.46,3.75,32.09,2.81,22.25-2.57,24.12-5.85.24-8.43-.46-12.18.23-16.63.7-27.17,1.4-23.66,1.4-23.66l15-24.13s-1.41-8.2-5.39-14.29a25.8,25.8,0,0,0-8.43-8.43l-10.08,13.82Z" style="fill:#7E57C2"></path><g style="clip-path:url(#freepik--clip-path-7--inject-2)"><path d="M224.05,174.92s2.16-1.29,7.33,0,12.92,6,14.65,4.74-3.45-5.17-3.45-5.17,4.31-.43,11.64,1.3,8.18,3.44,11.2,7.75,8.89,5.35,9.48,9.05-14.22,32.75-11.2,31,8.19-12.5,8.19-12.5-2.16,20.69-4.75,28.88,3.88,8.18,1.73,12.49-3.81,13.28-19.14,12.67-25.68-2.32-27-2.76-2.16-5.17,2.15-5.17,11.21,3.45,7.76.86-9-8.61-11.2-13.35,3.87-5.18,3.87-5.18-9.48-29.73-11.63-35.76,8.62,1.29,8.62,1.29l-17.24-17.67,13.36-15.08" style="opacity:0.30000000000000004"></path></g><path d="M255.58,171.47l-15.69-.94c-11.71-.7-15.46.23-15.46.23L203.35,153.2l-12.42,18.74,17.57,21.31s3.05,17.1,5.39,26.71,3.28,29.28,2.11,34.19-.24,7.27,1.64,8.2,15.46,3.75,32.09,2.81,22.25-2.57,24.12-5.85.24-8.43-.46-12.18.23-16.63.7-27.17,1.4-23.66,1.4-23.66l15-24.13s-1.41-8.2-5.39-14.29a25.8,25.8,0,0,0-8.43-8.43l-10.08,13.82Z" style="fill:none;stroke:#263238;stroke-miterlimit:10"></path><path d="M290.49,172.17s-1.41-8.2-5.39-14.29a25.8,25.8,0,0,0-8.43-8.43l-10.08,13.82-11,8.2,20.52,23.86Z" style="fill:#263238"></path><path d="M208.91,195.53,227.6,170.4a20.76,20.76,0,0,0-3.17.36L203.35,153.2l-12.42,18.74,17.57,21.31S208.65,194.11,208.91,195.53Z" style="fill:#263238"></path><path d="M229.05,232V196.09a5.5,5.5,0,0,1-2.42,1.6,8.93,8.93,0,0,1-3.07.57v-5a8.87,8.87,0,0,0,4.06-1.74,9,9,0,0,0,2.94-3.8h5.23V232Z" style="fill:#263238"></path><path d="M259.83,229.4c-1.59,2.12-4.14,3.17-7.64,3.17s-6.06-1-7.65-3.17-2.38-5.22-2.38-9.31V198.91c0-3.89.81-6.82,2.41-8.77s4.14-2.94,7.62-2.94,6,1,7.61,2.94,2.41,4.88,2.41,8.77v21.18C262.21,224.18,261.41,227.29,259.83,229.4Zm-7.71-2.64a2.84,2.84,0,0,0,2.47-1.25q.87-1.24.87-5.3V198.63q0-4.9-2.29-5.51a7.21,7.21,0,0,0-1.45-.1,2.65,2.65,0,0,0-1.91,1c-.62.66-.92,2.19-.92,4.61v21.6q0,4.13.81,5.34A2.76,2.76,0,0,0,252.12,226.76Z" style="fill:#263238"></path></g></svg>
