<svg xmlns="http://www.w3.org/2000/svg" viewBox="0 0 750 500"><g id="freepik--Character--inject-9"><rect x="114.58" y="233.63" width="526.26" height="128.48" rx="62.05" style="fill:#7E57C2"></rect><g style="opacity:0.30000000000000004"><rect x="114.58" y="233.63" width="526.26" height="128.48" rx="62.05"></rect></g><rect x="114.58" y="223.11" width="526.26" height="128.48" rx="64.24" style="fill:#7E57C2"></rect><g style="opacity:0.30000000000000004"><path d="M497.61,223.11s-2.89.06-4.35,0c-5,0-14,0-14,0L472.8,235c1.49,3.15,3.43,6.66,6.84,7.36a10.06,10.06,0,0,0,5.07-.64,34.68,34.68,0,0,0,11.17-5.83,11.89,11.89,0,0,0,4.42-6C500.93,227.42,499.91,224.19,497.61,223.11Z"></path></g><path d="M192.46,304.39l2.68-6A23,23,0,0,0,208.87,303c6.47,0,9.21-2.32,9.21-5.41,0-9-24.73-3.09-24.73-18.55,0-6.71,5.35-12.42,16.76-12.42,5,0,10.23,1.31,13.85,3.69l-2.44,6A23.08,23.08,0,0,0,210.05,273c-6.42,0-9,2.5-9,5.65,0,8.85,24.66,3.09,24.66,18.36,0,6.66-5.4,12.37-16.81,12.37C202.39,309.39,195.91,307.36,192.46,304.39Z" style="fill:#fff"></path><path d="M263.37,277.05v31.74H256.3v-4a13,13,0,0,1-10.23,4.46c-8.14,0-13.67-4.46-13.67-14V277.05h7.43v17.12c0,5.76,2.74,8.5,7.43,8.5,5.17,0,8.68-3.21,8.68-9.57V277.05Z" style="fill:#fff"></path><path d="M306.82,292.92c0,9.87-6.84,16.29-16.11,16.29-4.34,0-8-1.49-10.52-4.52v4.1h-7.07v-44.1h7.43v16.23a13.16,13.16,0,0,1,10.16-4.22C300,276.7,306.82,283.06,306.82,292.92Zm-7.55,0c0-6.06-4-9.92-9.39-9.92s-9.45,3.86-9.45,9.92,4.1,9.93,9.45,9.93S299.27,299,299.27,292.92Z" style="fill:#fff"></path><path d="M310.27,305.64l2.85-5.65a21.26,21.26,0,0,0,11.05,3.15c4.7,0,6.66-1.3,6.66-3.5,0-6.06-19.61-.36-19.61-13,0-6,5.41-9.92,14-9.92,4.22,0,9,1,11.89,2.73l-2.85,5.65a17.33,17.33,0,0,0-9.1-2.38c-4.51,0-6.65,1.48-6.65,3.56,0,6.42,19.61.72,19.61,13.14,0,5.94-5.47,9.81-14.38,9.81C318.41,309.21,313.12,307.66,310.27,305.64Z" style="fill:#fff"></path><path d="M341.89,292.92c0-9.51,7.13-16.22,17.17-16.22,6.18,0,11.12,2.55,13.55,7.37l-5.7,3.32A9,9,0,0,0,359,283c-5.46,0-9.62,3.8-9.62,9.92s4.16,9.93,9.62,9.93a9,9,0,0,0,7.91-4.4l5.7,3.33c-2.43,4.75-7.37,7.43-13.55,7.43C349,309.21,341.89,302.43,341.89,292.92Z" style="fill:#fff"></path><path d="M397.4,276.7v7.07a9.32,9.32,0,0,0-1.72-.18c-5.65,0-9.22,3.33-9.22,9.81v15.39H379V277.05h7.08v4.64C388.25,278.36,392.11,276.7,397.4,276.7Z" style="fill:#fff"></path><path d="M402.69,267.37a4.53,4.53,0,0,1,4.76-4.46c2.73,0,4.75,1.84,4.75,4.28a4.76,4.76,0,0,1-9.51.18Zm1,9.68h7.43v31.74H403.7Z" style="fill:#fff"></path><path d="M454.58,292.92c0,9.87-6.84,16.29-16.11,16.29-4.34,0-8-1.49-10.52-4.52v4.1h-7.07v-44.1h7.43v16.23a13.16,13.16,0,0,1,10.16-4.22C447.74,276.7,454.58,283.06,454.58,292.92Zm-7.55,0c0-6.06-4-9.92-9.39-9.92s-9.45,3.86-9.45,9.92,4.1,9.93,9.45,9.93S447,299,447,292.92Z" style="fill:#fff"></path><path d="M491.37,295.3h-24.9c.89,4.63,4.75,7.61,10.28,7.61a11.35,11.35,0,0,0,8.61-3.45l4,4.58c-2.86,3.38-7.31,5.17-12.78,5.17-10.64,0-17.53-6.84-17.53-16.29s6.95-16.22,16.4-16.22c9.27,0,16.05,6.48,16.05,16.4C491.49,293.69,491.43,294.59,491.37,295.3Zm-25-4.93h18a8.63,8.63,0,0,0-9-7.73A8.77,8.77,0,0,0,466.41,290.37Z" style="fill:#fff"></path><path d="M497.25,304.57a4.61,4.61,0,0,1,4.82-4.58,4.53,4.53,0,0,1,4.69,4.58,4.58,4.58,0,0,1-4.69,4.64A4.65,4.65,0,0,1,497.25,304.57Zm.42-37.38h8.8L505,295H499.1Z" style="fill:#fff"></path><g style="opacity:0.30000000000000004"><path d="M268.81,235.94c-1.51-3.71-3.92-10.37-7.07-12.83,0,0-20.17.34-20.27,0l9.37,33.56c3,2.39,4.52,5.69,5.49,8.81s1.77,6.47,4,8.82,6.65,3,8.59.41c2.19-2.93-.19-7-.26-10.65s2.24-6.87,3.18-10.4C273.45,247.75,271.11,241.59,268.81,235.94Z"></path></g><path d="M567.35,305.59l-2.94-3.38a10.56,10.56,0,0,1-2.59-6.93V284a14.91,14.91,0,0,0-12.64-14.72v-4.38a2,2,0,0,0-2-2h0a2,2,0,0,0-2,2v4.3A14.91,14.91,0,0,0,532,284v10.84a10.56,10.56,0,0,1-2.25,6.52l-3.32,4.22h15.19A6.28,6.28,0,0,0,551.74,308a6.35,6.35,0,0,0,1.61-2.43Z" style="fill:#fff"></path><path d="M420.54,119.41c1.4-3.55,2.81-7.21,2.83-11s-1.67-7.93-5-9.57c-3.1-1.51-6.83-.64-10.1-1.69-4-1.3-6.69-5.25-8.59-9.16s-3.45-8.15-6.54-11.13a13.72,13.72,0,0,0-15.65-2.11A23.31,23.31,0,0,0,365.35,71c-5.39,0-11.51.62-15.15,4.6-2.82,3.08-4.56,7-8.07,9.21-4.84,3.12-11.19.79-16.93,1.18-1.17.08-2.53.42-3,1.5a3.58,3.58,0,0,0,.55,2.89l4.73,9.14a8.85,8.85,0,0,1-7.7,0,26.15,26.15,0,0,0,7.33,16.22c-1-.69-2.55.1-3,1.26a5.59,5.59,0,0,0,.16,3.67,26.91,26.91,0,0,0,37.07,16.59l31.75,1.41a8.06,8.06,0,0,0,5.62,4.9c3.46-2.73,4-4.22,4-4.22,2.24,1.55.5.79,2.24,1.55,4,1.75,9.72-.65,10.47-5.05a9.29,9.29,0,0,1,2-4.89c1.22-1.32,3-1.86,4.55-2.71a13.06,13.06,0,0,0,5.62-6.12A9.4,9.4,0,0,1,420.54,119.41Z" style="fill:#263238"></path><path d="M342.25,107.37a30.51,30.51,0,0,1,28.27-30.2l1.58-.11c17.06-.25,26.81,14.09,26.59,31.15l2.53,78.57-38.94,2.78L360.8,164s-16.51-1.34-17.91-17.65C342.21,138.5,342.14,122.16,342.25,107.37Z" style="fill:#ffbe9d"></path><path d="M350.43,119.72a2.34,2.34,0,0,0,2.42,2.19,2.25,2.25,0,0,0,2.25-2.28,2.33,2.33,0,0,0-2.42-2.19A2.23,2.23,0,0,0,350.43,119.72Z" style="fill:#263238"></path><path d="M347.18,113.62c.31.29,2-1.15,4.49-1.33s4.44.94,4.69.62c.13-.15-.21-.68-1.05-1.2a6.48,6.48,0,0,0-3.79-.87,6.14,6.14,0,0,0-3.54,1.44C347.25,112.93,347,113.5,347.18,113.62Z" style="fill:#263238"></path><path d="M363.81,134c0-.15-1.58-.3-4.13-.44-.65,0-1.26-.1-1.4-.53a3.26,3.26,0,0,1,.28-1.93q.74-2.4,1.54-5c2.12-7.14,3.61-13,3.32-13.07s-2.24,5.63-4.36,12.77q-.76,2.64-1.46,5a3.76,3.76,0,0,0-.15,2.54,1.62,1.62,0,0,0,1.13.86,3.87,3.87,0,0,0,1.09.07C362.23,134.25,363.81,134.15,363.81,134Z" style="fill:#263238"></path><path d="M346.41,107.58c.57.54,2.65-.19,5.2-.37s4.73.08,5.18-.54c.2-.31-.17-.86-1.15-1.34a8.47,8.47,0,0,0-4.29-.67,8.37,8.37,0,0,0-4.08,1.41C346.41,106.71,346.15,107.32,346.41,107.58Z" style="fill:#263238"></path><path d="M397.11,120.48c.27-.14,11-4.14,11.43,7s-10.86,9.35-10.9,9S397.11,120.48,397.11,120.48Z" style="fill:#ffbe9d"></path><path d="M399.9,132.24c.05,0,.21.13.54.27a2,2,0,0,0,1.46,0c1.16-.48,2.08-2.4,2.05-4.42a6.46,6.46,0,0,0-.66-2.77,2.24,2.24,0,0,0-1.53-1.43,1,1,0,0,0-1.12.58c-.14.32-.06.54-.12.56s-.25-.18-.18-.64a1.25,1.25,0,0,1,.41-.72,1.47,1.47,0,0,1,1.07-.33,2.71,2.71,0,0,1,2.11,1.65,6.59,6.59,0,0,1,.8,3.09c0,2.26-1,4.41-2.64,4.95a2.09,2.09,0,0,1-1.8-.22C399.94,132.51,399.87,132.27,399.9,132.24Z" style="fill:#eb996e"></path><path d="M400.89,94.92a26.17,26.17,0,0,0-4.35-9c-5.85-8.13-19.21-11.93-26.8-11.25s-15.46,6.3-22.53,9.12c-4.63,1.85-8.14,6.1-6.37,9.39A27.21,27.21,0,0,1,332.26,95s-.27,4.17,2.05,5.28l7.3,4.78c9.73,1.29,26.81-8.29,30.1-11.3a51.57,51.57,0,0,1,10.07-7.22c-3.1,8.13,7,6.33,6.72,9.48-3.09,11.43,6.24,15.65,6.24,15.65l.23,10c-.21,2.56.89,4.53,3.45,4.36h0s2.78-3.82,3.25-6.93C402.59,113.1,402,100.91,400.89,94.92Z" style="fill:#263238"></path><path d="M360.67,164a39.73,39.73,0,0,0,20.93-7.83S377.43,168.31,361,168Z" style="fill:#eb996e"></path><path d="M374,118.22a2.34,2.34,0,0,0,2.42,2.19,2.23,2.23,0,0,0,2.25-2.28,2.34,2.34,0,0,0-2.42-2.19A2.25,2.25,0,0,0,374,118.22Z" style="fill:#263238"></path><path d="M371.26,112.36c.31.32,2.28-.92,5-.82s4.72,1.44,5,1.15c.15-.14-.16-.7-1-1.31a7.52,7.52,0,0,0-4-1.3,7.14,7.14,0,0,0-4,1C371.41,111.68,371.11,112.22,371.26,112.36Z" style="fill:#263238"></path><path d="M371,104.49c.24.69,2.75.38,5.7.76s5.33,1.2,5.73.59c.18-.29-.23-.94-1.19-1.61a10,10,0,0,0-8.71-1C371.45,103.63,370.9,104.17,371,104.49Z" style="fill:#263238"></path><path d="M363.58,138.84a45.51,45.51,0,0,1,6.45-1.65l1.59-.5h0a5.63,5.63,0,0,1,.36,4.73,4.57,4.57,0,0,1-3.09,2.12,3.29,3.29,0,0,1-2.64-.43s-2.06-.81-2.67-4.27" style="fill:#eb996e"></path><path d="M367.93,143.55a5.33,5.33,0,0,0,2.37-1,4.46,4.46,0,0,0,1.51-2.24,5.57,5.57,0,0,0,0-3.31l-.06-.18.3.17c-2.4.53-4.57,1-6.14,1.29a12.89,12.89,0,0,1-2.57.38,14.61,14.61,0,0,1,2.49-.74c1.55-.39,3.71-.9,6.11-1.44l.23-.05.07.21.06.2a5.88,5.88,0,0,1,0,3.62,4.69,4.69,0,0,1-1.75,2.39,3.92,3.92,0,0,1-1.87.7C368.18,143.64,367.92,143.58,367.93,143.55Z" style="fill:#263238"></path><path d="M418.81,129.08a2,2,0,0,1-.67-.17,3.92,3.92,0,0,1-1.56-1.25,5.83,5.83,0,0,1-1.15-2.93,17.7,17.7,0,0,1,.17-4.17,11.28,11.28,0,0,0-.21-4.88,4.64,4.64,0,0,0-1.51-2.17,11.35,11.35,0,0,0-2.5-1.47,17.5,17.5,0,0,1-2.78-1.49,5.92,5.92,0,0,1-2.08-2.62c-.91-2.12-.82-4.5-1.33-6.73a7.67,7.67,0,0,0-1.32-3.06,4.35,4.35,0,0,0-2.66-1.63c-1-.24-2.14-.28-3.21-.49a4.86,4.86,0,0,1-2.83-1.51,6.63,6.63,0,0,1-1.27-2.77c-.24-.95-.38-1.88-.57-2.75a10.71,10.71,0,0,0-.84-2.41,10.16,10.16,0,0,0-1.34-1.93A10.49,10.49,0,0,0,385,81.28a16.21,16.21,0,0,0-2.65-.06,7.14,7.14,0,0,1,2.68-.14,10.48,10.48,0,0,1,6.41,3.32,10,10,0,0,1,1.42,2,10.62,10.62,0,0,1,.91,2.5c.2.88.35,1.81.59,2.72a6.25,6.25,0,0,0,1.19,2.57,4.26,4.26,0,0,0,2.57,1.34c1,.2,2.11.23,3.22.48a4.93,4.93,0,0,1,3,1.81,8.28,8.28,0,0,1,1.42,3.26c.52,2.33.44,4.66,1.29,6.65a5.4,5.4,0,0,0,1.9,2.41,16.41,16.41,0,0,0,2.7,1.47,12.48,12.48,0,0,1,2.59,1.54,5.17,5.17,0,0,1,1.61,2.39,11.37,11.37,0,0,1,.18,5.06,17.52,17.52,0,0,0-.25,4.09,5.79,5.79,0,0,0,1,2.85A4,4,0,0,0,418.81,129.08Z" style="fill:#455a64"></path><path d="M328.82,89.28a2,2,0,0,1,.5.32l1.4,1a24.48,24.48,0,0,0,5.51,2.85,13.45,13.45,0,0,0,8.95.18,9.33,9.33,0,0,0,4.28-3.07,32.32,32.32,0,0,0,2.93-5A15.56,15.56,0,0,1,356,80.72a15.17,15.17,0,0,1,4.8-2.77,18.21,18.21,0,0,1,9.27-.68,24.69,24.69,0,0,1,6,1.86c.68.3,1.19.56,1.53.75a2.68,2.68,0,0,1,.51.31,2.37,2.37,0,0,1-.55-.21c-.36-.16-.88-.39-1.57-.67a27.52,27.52,0,0,0-6-1.68,18.17,18.17,0,0,0-9,.77,14.85,14.85,0,0,0-4.63,2.7,15,15,0,0,0-3.44,4.62,31.1,31.1,0,0,1-3,5.11A9.61,9.61,0,0,1,345.34,94a13.66,13.66,0,0,1-9.24-.28,23.23,23.23,0,0,1-5.5-3c-.6-.44-1-.8-1.34-1A2.89,2.89,0,0,1,328.82,89.28Z" style="fill:#455a64"></path><path d="M324.6,104.13c.06-.07.83.61,2.21,1.46a20,20,0,0,0,5.86,2.38,19.75,19.75,0,0,0,6.31.37c1.62-.17,2.6-.45,2.63-.36s-.23.13-.67.28a12,12,0,0,1-1.91.44,17.27,17.27,0,0,1-6.48-.22,17.47,17.47,0,0,1-5.94-2.58,12.32,12.32,0,0,1-1.53-1.23C324.74,104.35,324.57,104.16,324.6,104.13Z" style="fill:#455a64"></path><path d="M334,113.48c.06-.14,1.76.56,4,.92s4,.28,4.06.43a11.21,11.21,0,0,1-8-1.35Z" style="fill:#455a64"></path><path d="M361.35,173.55l-32.1,8.84-34.64,25,9.24,15.8,163.31.28s-6-21.83-7.91-28.53c-2.95-10.11-6.95-13-10.6-16.66a17.39,17.39,0,0,0-5.83-3.43c-6.46-1.41-36.35-8.12-42.17-8,0,0-6.71,13.87-20.77,13.73S361.35,173.55,361.35,173.55Z" style="fill:#455a64"></path><path d="M427.54,199.18c.1,0,.4-1.32,1.35-3.29a26.7,26.7,0,0,1,4.95-6.92,62.16,62.16,0,0,1,6.49-5.63,25.41,25.41,0,0,0,2.77-2.26,19.16,19.16,0,0,0-3,1.93,45.87,45.87,0,0,0-6.66,5.55,23.83,23.83,0,0,0-4.91,7.16,14,14,0,0,0-.83,2.5A2.67,2.67,0,0,0,427.54,199.18Z" style="fill:#263238"></path><path d="M330,216.52a18,18,0,0,0,.11-3.39c0-2.1-.14-5-.38-8.18s-.57-6.08-.87-8.15a17.34,17.34,0,0,0-.62-3.34,21.51,21.51,0,0,0,.21,3.39c.19,2.27.43,5.06.69,8.14s.4,5.88.55,8.15A21.28,21.28,0,0,0,330,216.52Z" style="fill:#263238"></path><g style="opacity:0.30000000000000004"><path d="M320.38,220.68c2.64-.79,5.33-1.79,7.29-3.72s3-5,1.84-7.54A23.69,23.69,0,0,0,351.37,223l-38.74.49A33.12,33.12,0,0,1,320.38,220.68Z"></path></g><path d="M503.08,223.42s-3.92-5.33-5.86-6.34-4.59-1-5.76.06l-1.17,1.05s-6.1-2.73-9-.63c0,0-5.8-2.74-8.57.4,0,0-4.47-2.91-6.36-.37s-1.7,6.82-.79,9,2.63,9.73,4,9.86c0,0,3.56.38,4-1.55s.68-2.85.68-2.85,1.36,6.81,3,7.15,4.77.16,4.87-2.83c0,0,1.52,2.25,3,1.6s3.32-1.75,3.16-3.6-.19-3.7-.19-3.7.82,2.7,2.16,2.11,2.7-.46,3.46-2.74,2.63-6.65,2.63-6.65Z" style="fill:#ffbe9d"></path><path d="M488.19,230.55a17.74,17.74,0,0,0-.58-1.92,10.66,10.66,0,0,1,1.68-9.06c.72-1,1.3-1.52,1.24-1.59s-.73.36-1.57,1.33a9.67,9.67,0,0,0-1.75,9.44A4.22,4.22,0,0,0,488.19,230.55Z" style="fill:#eb996e"></path><path d="M480.88,217.6a9.27,9.27,0,0,0-.78,2.68,26.48,26.48,0,0,0,.9,13.37,9.52,9.52,0,0,0,1.13,2.55c.19-.06-1.52-4-1.85-9.22S481.07,217.63,480.88,217.6Z" style="fill:#eb996e"></path><path d="M472.55,218.05a21.51,21.51,0,0,0-.09,7.2,21.89,21.89,0,0,0,1.72,7c.17,0-.69-3.15-1.13-7.07S472.72,218.06,472.55,218.05Z" style="fill:#eb996e"></path><path d="M448.56,219.58a2.26,2.26,0,0,1,1.54-1.24,4.94,4.94,0,0,1,4.42,1.18,17,17,0,0,1,3.23,4l-8.64-.06C449.19,222.12,448.08,220.81,448.56,219.58Z" style="fill:#ffbe9d"></path><path d="M229.6,225.75a17.35,17.35,0,0,1,8.09-13h0a14.37,14.37,0,0,1,12-1.19l16.67,5.8c.9,1,28.41-9.64,28.41-9.64L304,223.5l-52.58-.08a123.27,123.27,0,0,0,9.18,9.41l3.57,11.86-.35,10.73c-1.89.87-4.71-2.44-4.71-2.44l-1.65,3,.55,2.91s4.86,11.8,4.69,14.43a1.49,1.49,0,0,1-1.53,1.49,3.54,3.54,0,0,1-3.38-2l-6.91-13.43s-5.35-1.3-7.22-3.06S239,251.2,239,251.2l-3.4-.48a1.8,1.8,0,0,1-1.17-.23,6.35,6.35,0,0,1-3.44-4.6l-1.73-9C228.84,234.85,229.17,230.09,229.6,225.75Z" style="fill:#ffbe9d"></path><path d="M245.26,249.12a23.25,23.25,0,0,0,5.68,10.38c.13-.1-1.46-2.23-3-5.09S245.41,249.07,245.26,249.12Z" style="fill:#eb996e"></path><path d="M237.24,248.14c-.18.07.45,1.46,1.53,2.92a9.15,9.15,0,0,0,2.18,2.46,10.56,10.56,0,0,0-1.73-2.79A19.94,19.94,0,0,0,237.24,248.14Z" style="fill:#eb996e"></path><path d="M259.11,261.62a28.32,28.32,0,0,0-.94-3.28c-.61-2-1.4-4.81-2.17-7.92-.39-1.56-.74-3-1-4.4a11.28,11.28,0,0,1-.36-3.59,5.65,5.65,0,0,1,1.27-3s-.32.14-.7.61a5,5,0,0,0-1,2.36,10.75,10.75,0,0,0,.25,3.75c.27,1.37.61,2.86,1,4.43.78,3.12,1.63,5.91,2.34,7.9A17.26,17.26,0,0,0,259.11,261.62Z" style="fill:#eb996e"></path><path d="M255.5,241.68c-.07.06.5.71,1.16,1.9a12,12,0,0,1,1.49,5,15.28,15.28,0,0,0,.25,3,4.41,4.41,0,0,0,1.26,2.18,4.68,4.68,0,0,0,1.87,1.27c.06-.08-.68-.55-1.58-1.54a4.33,4.33,0,0,1-1.05-2,17.31,17.31,0,0,1-.19-2.92,11,11,0,0,0-1.71-5.18A5.27,5.27,0,0,0,255.5,241.68Z" style="fill:#eb996e"></path><path d="M251.58,223.57c.1-.13-1.85-1.75-3.82-4.16s-3.23-4.63-3.41-4.48a6.6,6.6,0,0,0,.69,1.5,22.1,22.1,0,0,0,2.29,3.34A14.24,14.24,0,0,0,251.58,223.57Z" style="fill:#eb996e"></path><g style="opacity:0.30000000000000004"><polygon points="424.56 223.43 425.21 208.36 414.63 223.41 424.56 223.43"></polygon></g><path d="M424.55,223.42a79.29,79.29,0,0,1,.24-8.92,77.83,77.83,0,0,1,.75-8.89,75.1,75.1,0,0,1-.23,8.92A73.3,73.3,0,0,1,424.55,223.42Z" style="fill:#263238"></path><path d="M421.32,170.81a2.62,2.62,0,0,1,.27,1,4.35,4.35,0,0,1-.73,2.78,6.29,6.29,0,0,1-3.67,2.69,19.5,19.5,0,0,1-6,.51,24.38,24.38,0,0,0-3.48.18,8.49,8.49,0,0,0-3.47,1.24,7.21,7.21,0,0,0-2.49,3,20.38,20.38,0,0,0-1.28,4.07c-.32,1.44-.61,2.93-1.07,4.44a12.3,12.3,0,0,1-11,8.83A13,13,0,0,1,379,196.2a14.29,14.29,0,0,1-2.94-3.78,8.26,8.26,0,0,0-2.87-3.29,6.82,6.82,0,0,0-4.06-.71,33.88,33.88,0,0,0-4,.68,20.38,20.38,0,0,1-3.81.52,9.89,9.89,0,0,1-3.52-.56,12,12,0,0,1-5-3.36,11.65,11.65,0,0,1-2.35-3.93,10,10,0,0,1-.45-1.61c-.05-.49-.13-.89-.13-1.22v-.76a1.15,1.15,0,0,1,0-.25,12.08,12.08,0,0,0,.75,3.77,11.51,11.51,0,0,0,2.38,3.8,11.64,11.64,0,0,0,4.94,3.21,9.67,9.67,0,0,0,3.39.51,20.1,20.1,0,0,0,3.73-.54,35,35,0,0,1,4-.72,7.27,7.27,0,0,1,4.33.75,8.72,8.72,0,0,1,3.06,3.45,14.09,14.09,0,0,0,2.86,3.66,12.56,12.56,0,0,0,9,3.21,12.1,12.1,0,0,0,8.43-4.37c2.07-2.45,2.56-5.63,3.23-8.49A20,20,0,0,1,401.3,182a7.75,7.75,0,0,1,2.66-3.18,8.79,8.79,0,0,1,3.66-1.28,23.72,23.72,0,0,1,3.53-.14,20.29,20.29,0,0,0,6-.42,6.17,6.17,0,0,0,3.58-2.53,4.31,4.31,0,0,0,.79-2.67A7.39,7.39,0,0,0,421.32,170.81Z" style="fill:#fff"></path><path d="M372.69,222.34a3.19,3.19,0,0,1-.21-.68l-.55-2a23.67,23.67,0,0,0-3-6.85,11.44,11.44,0,0,0-1.59-1.87,9.75,9.75,0,0,0-2.17-1.51,11.13,11.13,0,0,0-5.7-1,39.1,39.1,0,0,0-6.47,1.13,27.26,27.26,0,0,1-7.08.92,9.73,9.73,0,0,1-6.67-2.49,9.85,9.85,0,0,1-2.64-6.11,31.23,31.23,0,0,1,.14-6,29.48,29.48,0,0,0,.13-5.17,9.4,9.4,0,0,0-3.12-6.54,7.07,7.07,0,0,0-2.42-1.23l.18,0a2.62,2.62,0,0,1,.53.11,5.67,5.67,0,0,1,1.84.94,9.51,9.51,0,0,1,3.36,6.66,28.94,28.94,0,0,1-.07,5.24,31.48,31.48,0,0,0-.09,5.93A8.31,8.31,0,0,0,346,210a26.73,26.73,0,0,0,7-.9,38.84,38.84,0,0,1,6.55-1.11,11.63,11.63,0,0,1,5.93,1.1,10.07,10.07,0,0,1,2.25,1.61,12.6,12.6,0,0,1,1.62,2,22.61,22.61,0,0,1,2.85,7c.22.86.36,1.54.45,2A3.51,3.51,0,0,1,372.69,222.34Z" style="fill:#fff"></path><path d="M425.78,209.57a22.19,22.19,0,0,0-4.37-1.67,15.76,15.76,0,0,0-5-.37,14.74,14.74,0,0,0-5.85,1.79,15.56,15.56,0,0,0-4.67,4,14.4,14.4,0,0,0-2.39,4.41,6.19,6.19,0,0,0-.22,3.33,9.42,9.42,0,0,0,.43,1.17s-.09-.08-.22-.25a3.76,3.76,0,0,1-.41-.87,6.14,6.14,0,0,1,.06-3.48,14.33,14.33,0,0,1,2.37-4.6,15.6,15.6,0,0,1,4.79-4.14,14.85,14.85,0,0,1,6.07-1.82,15.41,15.41,0,0,1,5.14.49,14.43,14.43,0,0,1,3.23,1.31c.36.2.62.38.8.5S425.79,209.55,425.78,209.57Z" style="fill:#fff"></path><path d="M436.56,182.59c-.05,0-.36-.41-.61-1.24a7.14,7.14,0,0,1-.14-3.33,7.28,7.28,0,0,1,1.38-3.05c.54-.67,1-1,1-.92a9.24,9.24,0,0,0-1.66,8.54Z" style="fill:#fff"></path><path d="M461,202.41a1.7,1.7,0,0,1-.11.44,7.62,7.62,0,0,1-.46,1.2,11.68,11.68,0,0,1-2.87,3.76,12.23,12.23,0,0,1-6.36,2.91c-2.7.4-5.59-.46-8.49-1.18a19,19,0,0,0-4.31-.66,12.05,12.05,0,0,0-4,.62,13.65,13.65,0,0,0-5.68,3.71,13.07,13.07,0,0,0-2.49,3.89c-.42,1-.53,1.63-.59,1.62a1.27,1.27,0,0,1,.06-.45,8.7,8.7,0,0,1,.34-1.24,12.51,12.51,0,0,1,2.4-4.07,13.91,13.91,0,0,1,5.81-3.92,12.09,12.09,0,0,1,4.13-.67,20,20,0,0,1,4.42.66c2.93.73,5.74,1.58,8.31,1.21a12,12,0,0,0,6.18-2.71,12.24,12.24,0,0,0,2.93-3.57C460.81,203,461,202.39,461,202.41Z" style="fill:#fff"></path><path d="M327.3,220.68a1.41,1.41,0,0,1-.35,0,5.19,5.19,0,0,1-1,0,9.8,9.8,0,0,1-3.6-.94,10.62,10.62,0,0,1-4.2-3.57,10.09,10.09,0,0,1-1.37-3,27.29,27.29,0,0,1-.59-3.45c-.27-2.34-.65-4.62-2-6.15a7.84,7.84,0,0,0-4.62-2.42,25.22,25.22,0,0,0-3.63-.37,9.36,9.36,0,0,1-1.36-.08,5.5,5.5,0,0,1,1.36-.12,19.51,19.51,0,0,1,3.7.21,8.05,8.05,0,0,1,4.91,2.47,7.59,7.59,0,0,1,1.51,2.95,22.68,22.68,0,0,1,.61,3.44,28.33,28.33,0,0,0,.57,3.38,9.42,9.42,0,0,0,1.28,2.86,10.52,10.52,0,0,0,4,3.51A12.44,12.44,0,0,0,327.3,220.68Z" style="fill:#fff"></path></g><g id="freepik--Cursor--inject-9"><path d="M368.75,390.78a26.23,26.23,0,0,1,2.91,9H377l22.53-.39-.17.4s3.68-17.28,4.35-22.42c.55-4.24,3.17-14.38,0-18.86a4.67,4.67,0,0,0-5.15-1.72,3.67,3.67,0,0,0-2.59,2.83s-.27-6-4.57-6.08-4.45,3.27-4.45,3.27-1.18-6.85-6-6.79a4.6,4.6,0,0,0-4,3.33V340.35a5,5,0,0,0-4.66-5,4.85,4.85,0,0,0-5,4.78L367,370.21l-7.31-9.38c-1.91-2.43-6.47-1.23-7,.86,0,0-1.32,2.75,1.41,6.8C356,371.52,368.75,390.78,368.75,390.78Z" style="fill:#ebebeb"></path><path d="M368.75,390.78s-.13-.16-.35-.48l-1-1.44-3.75-5.59-5.93-8.88-3.7-5.56a11.12,11.12,0,0,1-1.63-3.31,6.23,6.23,0,0,1,0-3.91v0A3.18,3.18,0,0,1,354,359.9a5.61,5.61,0,0,1,2.36-.6,4.42,4.42,0,0,1,2.44.57,4.7,4.7,0,0,1,.53.38c.16.15.31.32.45.48l.78,1,6.53,8.35-.39.13c.1-8.4.21-17.61.32-27.41l0-1.84a8.85,8.85,0,0,1,.13-1.9,5.13,5.13,0,0,1,2.19-3.17,5,5,0,0,1,7,1.6,5.31,5.31,0,0,1,.73,1.89,11.25,11.25,0,0,1,.1,2v11.93l-.51-.07a5,5,0,0,1,2.21-2.87,5.21,5.21,0,0,1,1.46-.57,2.7,2.7,0,0,1,.8-.06,6.65,6.65,0,0,1,.78.09,5.08,5.08,0,0,1,2.66,1.53,11.24,11.24,0,0,1,2.51,5.36l-.51,0a3.75,3.75,0,0,1,2.22-3.08,5.34,5.34,0,0,1,1.87-.42,5,5,0,0,1,1,0l.48.06.46.14a4.6,4.6,0,0,1,2.67,2.57,10.31,10.31,0,0,1,.89,3.53l-.5-.05a4,4,0,0,1,2.42-2.89,4.89,4.89,0,0,1,3.74.08,4.77,4.77,0,0,1,1.56,1.07,6.84,6.84,0,0,1,1,1.54,12,12,0,0,1,.91,3.49c.43,4.75-.59,9.26-1.28,13.53s-1.46,8.43-2.23,12.34-1.58,7.61-2.31,11.11l-.36-.11.16-.4.18.26-22.53.33.12-.13h0v.13H377l-5.37,0h-.09v-.09a27.06,27.06,0,0,0-1.8-6.74c-.3-.74-.56-1.29-.75-1.66s-.26-.56-.26-.56a17.25,17.25,0,0,1,1.11,2.18,26,26,0,0,1,1.9,6.76l-.1-.09,5.37,0-.13.13h0v-.12H377l22.52-.46h.29l-.11.27-.16.4-.36-.11q1.07-5.25,2.26-11.12c.76-3.91,1.6-8,2.19-12.32s1.68-8.78,1.25-13.41a11.37,11.37,0,0,0-.87-3.33,6.12,6.12,0,0,0-1-1.41,4.67,4.67,0,0,0-1.39-1,4.44,4.44,0,0,0-3.36-.06,3.42,3.42,0,0,0-2.12,2.54l-.36,1.73-.14-1.78a9.9,9.9,0,0,0-.84-3.33,4.14,4.14,0,0,0-2.37-2.31,5.27,5.27,0,0,0-3.39.2,3.23,3.23,0,0,0-1.91,2.63l-.16,1.69-.36-1.66a10.83,10.83,0,0,0-2.38-5.09,4,4,0,0,0-5.05-.9,4.46,4.46,0,0,0-2,2.57l-.51,1.58V341.36a10.74,10.74,0,0,0-.08-1.9,5,5,0,0,0-.67-1.71,4.64,4.64,0,0,0-2.88-2.08,4.59,4.59,0,0,0-5.43,3.49,8,8,0,0,0-.12,1.79l0,1.85c-.13,9.79-.26,19-.38,27.41v.63l-.38-.5L360.28,362a6.33,6.33,0,0,0-1.64-1.76,4.14,4.14,0,0,0-2.23-.53,5.41,5.41,0,0,0-2.19.55,2.79,2.79,0,0,0-1.44,1.51h0v0a5.87,5.87,0,0,0,0,3.66,10.83,10.83,0,0,0,1.57,3.22l3.67,5.58,5.85,8.93,3.67,5.64c.41.64.72,1.13.95,1.47S368.75,390.78,368.75,390.78Z" style="fill:#263238"></path><rect x="367.76" y="399.39" width="35.97" height="8.04" rx="3.88" style="fill:#ebebeb"></rect><path d="M399.86,407.43s.28,0,.8-.14a4,4,0,0,0,2-1.18,3.88,3.88,0,0,0,.81-1.43,4.87,4.87,0,0,0,.11-2,3.73,3.73,0,0,0-3.17-3.1l-28.73,0a3.69,3.69,0,0,0-3.19,1.89,3.89,3.89,0,0,0-.44,1.83,3.66,3.66,0,0,0,3.28,3.79c1.23,0,2.51,0,3.71,0l12.93.06,8.72.08,2.37.05a4.16,4.16,0,0,1,.83.05,4.16,4.16,0,0,1-.83.05l-2.37,0-8.72.08-12.93.06c-1.22,0-2.44,0-3.76,0a4.17,4.17,0,0,1-3.29-2.23,4.28,4.28,0,0,1,3.69-6.3c11.24,0,21.37,0,28.78.13a4,4,0,0,1,3.4,3.42,5,5,0,0,1-.15,2.07,4,4,0,0,1-.91,1.5,3.82,3.82,0,0,1-2.08,1.14A2.74,2.74,0,0,1,399.86,407.43Z" style="fill:#263238"></path><path d="M376.79,364.34a65.38,65.38,0,0,1,0-11.65,65.38,65.38,0,0,1,0,11.65Z" style="fill:#263238"></path><path d="M386.82,363.55a23.22,23.22,0,0,1,0-6.93,23.22,23.22,0,0,1,0,6.93Z" style="fill:#263238"></path><path d="M396,366.47a22.43,22.43,0,0,1,0-6.94,23.29,23.29,0,0,1,0,6.94Z" style="fill:#263238"></path><path d="M365.28,334.86a35.68,35.68,0,0,1-5.5-2.51,35,35,0,0,1-5.27-3,71.22,71.22,0,0,1,10.77,5.5Z" style="fill:#263238"></path><path d="M370.16,332.11a58.28,58.28,0,0,1-1.45-7.62,58,58,0,0,1-.95-7.71,55.74,55.74,0,0,1,1.46,7.63A58.64,58.64,0,0,1,370.16,332.11Z" style="fill:#263238"></path><path d="M376.23,332.81a39.66,39.66,0,0,1,3.4-5.3,38.19,38.19,0,0,1,3.82-5,75.32,75.32,0,0,1-7.22,10.31Z" style="fill:#263238"></path></g></svg>
